<?xml version="1.0" encoding="UTF-8" standalone="no"?><!DOCTYPE svg PUBLIC "-//W3C//DTD SVG 1.1//EN" "http://www.w3.org/Graphics/SVG/1.1/DTD/svg11.dtd"><svg width="100%" height="100%" viewBox="0 0 378 111" version="1.1" xmlns="http://www.w3.org/2000/svg" xmlns:xlink="http://www.w3.org/1999/xlink" xml:space="preserve" xmlns:serif="http://www.serif.com/" style="fill-rule:evenodd;clip-rule:evenodd;stroke-miterlimit:10;"><rect id="Page-2" serif:id="Page 2" x="0" y="0" width="377.675" height="110.35" style="fill:none;"/><g id="Layer-1" serif:id="Layer 1"><g><path d="M72.071,13.358c0,0.426 -0.452,0.638 -1.356,0.638c-2.925,0.053 -4.732,0.559 -5.424,1.516c-0.638,0.585 -2.924,5.104 -6.859,13.558c-1.754,3.776 -3.403,7.099 -4.945,9.97c-1.063,1.967 -1.675,3.31 -1.834,4.028c-0.16,0.718 -0.239,2.273 -0.239,4.666l0,15.074c0,1.754 0.226,2.791 0.678,3.11c0.451,0.319 2.033,0.559 4.745,0.718c1.436,0.106 2.154,0.372 2.154,0.798c0,0.425 -0.373,0.638 -1.117,0.638l-0.957,0l-11.166,-0.24c-3.137,0 -5.716,0.054 -7.737,0.16c-0.319,0.053 -0.691,0.08 -1.116,0.08c-0.745,0 -1.117,-0.24 -1.117,-0.718c0,-0.479 0.612,-0.745 1.835,-0.798c2.924,-0.106 4.652,-0.372 5.184,-0.797c0.532,-0.426 0.797,-1.702 0.797,-3.829l0,-16.828c-0.531,-1.17 -2.073,-4.281 -4.626,-9.332l-7.975,-15.792c-0.798,-1.542 -1.755,-3.27 -2.871,-5.184c-0.585,-0.532 -1.848,-0.798 -3.789,-0.798c-1.941,0 -2.911,-0.292 -2.911,-0.877c0,-0.425 0.425,-0.638 1.276,-0.638c1.117,0 3.35,0.053 6.7,0.159c1.914,0.054 3.296,0.08 4.147,0.08l9.252,-0.08c0.372,-0.053 0.797,-0.079 1.276,-0.079c0.957,0 1.436,0.266 1.436,0.797c0,0.479 -0.904,0.718 -2.712,0.718c-3.297,0 -4.945,0.585 -4.945,1.755c0,0.904 1.675,4.546 5.025,10.926l7.257,13.798c1.33,-2.392 2.845,-5.343 4.547,-8.853l4.705,-9.491c1.755,-3.403 2.632,-5.636 2.632,-6.699c0,-0.692 -0.452,-1.09 -1.356,-1.197c-1.861,-0.266 -3.11,-0.372 -3.748,-0.319c-1.17,0.053 -1.755,-0.212 -1.755,-0.797c0,-0.426 0.505,-0.638 1.516,-0.638l4.625,0.079l2.632,-0.079c5.424,-0.16 8.136,0.106 8.136,0.797Z" style="fill:#fff;fill-rule:nonzero;"/><path d="M143.034,32.42c0,0.372 -0.425,0.559 -1.276,0.559l-0.399,0c-0.531,-0.054 -1.063,-0.08 -1.595,-0.08c-0.851,0 -1.276,0.531 -1.276,1.595l0,14.755c0,5.158 -0.106,8.481 -0.319,9.97c-0.213,1.488 -0.771,2.977 -1.675,4.466c-2.074,3.35 -5.742,5.025 -11.006,5.025c-4.36,0 -7.843,-1.011 -10.449,-3.031c-2.392,-1.861 -3.589,-5.45 -3.589,-10.767l0,-16.829c0,-2.871 -0.093,-4.44 -0.279,-4.706c-0.186,-0.266 -0.97,-0.398 -2.353,-0.398c-1.116,0 -1.674,-0.213 -1.674,-0.639c0,-0.372 0.372,-0.558 1.116,-0.558l2.473,0c0.531,0.053 0.93,0.08 1.196,0.08l6.7,0c0.372,0 0.824,-0.027 1.355,-0.08c0.479,0 0.771,0 0.878,0c0.957,0 1.435,0.213 1.435,0.638c0,0.532 -0.983,0.771 -2.951,0.718c-0.585,0 -0.93,0.093 -1.036,0.279c-0.107,0.186 -0.16,0.784 -0.16,1.795l0,19.141c0,5.211 0.665,8.588 1.994,10.13c1.489,1.754 3.695,2.632 6.62,2.632c4.094,0 6.885,-1.702 8.374,-5.105c0.745,-1.701 1.117,-4.44 1.117,-8.215c0,0.053 0,-0.239 0,-0.877c-0.053,-0.585 -0.08,-1.197 -0.08,-1.835l0,-16.589c0,-0.691 -0.133,-1.117 -0.399,-1.276c-0.266,-0.16 -0.997,-0.239 -2.193,-0.239c-1.196,0 -1.795,-0.24 -1.795,-0.718c0,-0.372 0.32,-0.559 0.958,-0.559c0.265,0 0.531,0.027 0.797,0.08l3.669,0.08c0.053,0 0.346,0 0.877,0c0.585,-0.053 1.436,-0.08 2.553,-0.08l1.116,0c0.851,0 1.276,0.213 1.276,0.638Z" style="fill:#fff;fill-rule:nonzero;"/><path d="M179.244,66.158c0,1.701 -1.489,2.552 -4.466,2.552c-2.872,0 -5.211,-1.09 -7.019,-3.27c-0.798,-0.957 -1.329,-1.914 -1.595,-2.872c-0.266,-0.957 -0.585,-3.216 -0.957,-6.779c-0.266,-2.286 -0.997,-3.881 -2.194,-4.785c-1.196,-0.904 -3.256,-1.409 -6.181,-1.516l0,16.43c-0.159,0.745 1.197,1.117 4.068,1.117c0.585,0 0.877,0.186 0.877,0.558c0,0.372 -0.372,0.558 -1.116,0.558c-0.585,0 -1.144,-0.026 -1.675,-0.079l-2.792,0c-1.17,0 -2.579,0.026 -4.227,0.079c-1.595,0 -2.472,0 -2.632,0l-1.515,0c-1.489,0 -2.234,-0.186 -2.234,-0.558c0,-0.425 0.266,-0.638 0.798,-0.638c0.16,0 0.425,0.027 0.798,0.08l0.319,0c1.807,0 2.711,-0.372 2.711,-1.117l0,-31.504c0,-0.585 -0.146,-0.97 -0.438,-1.156c-0.293,-0.186 -1.064,-0.279 -2.313,-0.279c-1.25,0 -1.875,-0.213 -1.875,-0.639c0,-0.372 0.373,-0.558 1.117,-0.558l0.558,0c0.851,0.107 3.377,0.16 7.577,0.16c1.755,0 3.191,-0.027 4.307,-0.08c1.117,-0.053 1.994,-0.08 2.632,-0.08c3.563,0 6.421,0.731 8.574,2.193c2.153,1.463 3.23,3.39 3.23,5.783c0,2.605 -1.143,4.719 -3.429,6.341c-2.287,1.621 -5.504,2.565 -9.651,2.831c4.466,0.479 7.537,1.648 9.212,3.509c1.675,1.861 2.752,5.211 3.23,10.05c0.319,3.296 1.303,4.945 2.951,4.945c0.266,0 0.399,-0.08 0.399,-0.24c0,-0.053 -0.067,-0.226 -0.199,-0.518c-0.133,-0.292 -0.2,-0.518 -0.2,-0.678c0,-1.01 0.532,-1.515 1.595,-1.515c1.17,0 1.755,0.558 1.755,1.675Zm-12.602,-25.922c0,-4.785 -2.366,-7.178 -7.098,-7.178c-1.223,0 -1.981,0.12 -2.273,0.359c-0.293,0.239 -0.439,0.811 -0.439,1.715l0,13.08c6.54,0 9.81,-2.658 9.81,-7.976Z" style="fill:#fff;fill-rule:nonzero;"/></g><path d="M64.015,12.481l-2.632,0l-4.626,0c-1.011,0 -1.515,0.216 -1.515,0.645c0,0.59 0.584,0.859 1.754,0.804c0.639,-0.052 1.887,0.055 3.749,0.323c0.903,0.107 1.356,0.511 1.356,1.209c0,1.074 -0.866,3.329 -2.598,6.766l-4.709,9.491c-1.704,3.506 -3.222,6.455 -4.553,8.845l-7.288,-13.803c-3.346,-6.418 -5.019,-10.081 -5.019,-10.991c0,-1.177 1.648,-1.765 4.945,-1.765c1.807,0 2.712,-0.24 2.712,-0.721c0,-0.535 -0.478,-0.803 -1.435,-0.803c-0.479,0 -0.905,0.04 -1.277,0.12l-9.251,0.119c-0.852,0 -2.234,-0.026 -4.148,-0.079c-3.35,-0.106 -5.583,-0.16 -6.699,-0.16c-0.85,0 -1.276,0.213 -1.276,0.638c0,0.586 0.97,0.878 2.911,0.878c1.94,0 3.203,0.266 3.788,0.797c1.117,1.914 2.074,3.643 2.872,5.184l7.975,15.792c2.552,5.052 4.094,8.163 4.626,9.332l0,16.766c0,2.119 -0.266,3.39 -0.798,3.813c-0.531,0.424 -2.26,0.69 -5.184,0.796c-1.223,0.056 -1.834,0.336 -1.834,0.84c0,0.503 0.371,0.755 1.116,0.755c0.425,0 0.798,-0.027 1.117,-0.08c2.02,-0.106 4.598,-0.159 7.736,-0.159l11.166,0.239l0.957,0c0.745,0 1.117,-0.2 1.117,-0.604c0,-0.401 -0.718,-0.651 -2.153,-0.752c-2.712,-0.16 -4.295,-0.4 -4.746,-0.72c-0.452,-0.32 -0.678,-1.36 -0.678,-3.119l0,-15.119c0,-2.398 0.08,-3.958 0.239,-4.677c0.16,-0.721 0.771,-2.067 1.835,-4.04c1.541,-2.873 3.19,-6.194 4.945,-9.971c3.934,-8.544 6.221,-13.111 6.859,-13.701c0.69,-0.968 2.498,-1.477 5.423,-1.532c0.904,0 1.356,-0.201 1.356,-0.603c0,-0.661 -2.712,-0.913 -8.135,-0.753Z" style="fill:none;stroke:#fff;stroke-width:0.4px;"/><path d="M141.775,31.782l-1.116,0l-2.553,0l-0.877,0l-3.669,0l-0.798,0c-0.637,0 -0.957,0.186 -0.957,0.556c0,0.476 0.609,0.714 1.827,0.714c1.218,0 1.962,0.08 2.234,0.239c0.27,0.159 0.406,0.582 0.406,1.27l0,19.214c0,3.758 -0.373,6.485 -1.117,8.177c-1.489,3.389 -4.28,5.082 -8.374,5.082c-2.925,0 -5.132,-0.875 -6.62,-2.626c-1.329,-1.537 -1.994,-4.906 -1.994,-10.105l0,-19.097c0,-1.007 0.052,-1.603 0.16,-1.789c0.105,-0.186 0.451,-0.279 1.036,-0.279c1.967,0.054 2.951,-0.186 2.951,-0.718c0,-0.425 -0.478,-0.638 -1.435,-0.638l-0.877,0l-1.357,0l-6.699,0l-1.196,0l-1.356,0l-1.117,0c-0.745,0 -1.116,0.186 -1.116,0.557c0,0.425 0.557,0.637 1.675,0.637c1.381,0 2.166,0.133 2.352,0.399c0.186,0.265 0.279,1.83 0.279,4.695l0,16.792c0,5.306 1.197,8.886 3.589,10.744c2.605,2.015 6.088,3.024 10.448,3.024c5.264,0 8.933,-1.668 11.007,-5.003c0.904,-1.481 1.462,-2.963 1.675,-4.446c0.212,-1.482 0.319,-4.79 0.319,-9.925l0,-14.69c0,-1.058 0.425,-1.588 1.276,-1.588l1.994,0c0.85,0 1.276,-0.185 1.276,-0.558c0,-0.425 -0.426,-0.638 -1.276,-0.638Z" style="fill:none;stroke:#fff;stroke-width:0.4px;"/><path d="M177.506,64.403c-1.064,0 -1.595,0.492 -1.595,1.475c0,0.155 0.066,0.376 0.199,0.66c0.132,0.284 0.2,0.452 0.2,0.504c0,0.155 -0.134,0.232 -0.399,0.232c-1.649,0 -2.633,-1.64 -2.951,-4.922c-0.478,-4.817 -1.556,-8.151 -3.23,-10.005c-1.675,-1.851 -4.745,-3.017 -9.212,-3.494c4.147,-0.264 7.364,-1.203 9.65,-2.818c2.286,-1.614 3.43,-3.718 3.43,-6.313c0,-2.381 -1.077,-4.3 -3.231,-5.756c-2.153,-1.456 -5.011,-2.184 -8.573,-2.184l-2.632,0l-4.307,0l-7.577,0l-0.558,0c-0.745,0 -1.117,0.187 -1.117,0.558c0,0.427 0.625,0.639 1.875,0.639c1.248,0 2.019,0.093 2.312,0.279c0.292,0.187 0.439,0.572 0.439,1.157l0,31.504c0,0.745 -0.905,1.116 -2.711,1.116l-0.32,0l-0.797,0c-0.533,0 -0.798,0.199 -0.798,0.596c0,0.347 0.744,0.521 2.233,0.521l12.841,0c0.744,0 1.117,-0.186 1.117,-0.559c0,-0.371 -0.288,-0.558 -0.864,-0.558c-2.827,0 -4.161,-0.371 -4.001,-1.116l0,-16.43c2.913,0.105 4.966,0.609 6.158,1.509c1.191,0.899 1.921,2.488 2.187,4.765c0.37,3.548 0.687,5.799 0.953,6.752c0.263,0.953 0.795,1.907 1.59,2.859c1.8,2.171 4.132,3.257 6.994,3.257c2.966,0 4.45,-0.851 4.45,-2.553c0,-1.116 -0.586,-1.675 -1.755,-1.675Zm-20.577,-16.19l0,-13.012c0,-0.899 0.144,-1.467 0.434,-1.705c0.289,-0.238 1.041,-0.358 2.255,-0.358c4.693,0 7.041,2.38 7.041,7.141c0,5.289 -3.244,7.934 -9.73,7.934Z" style="fill:none;stroke:#fff;stroke-width:0.4px;"/><rect x="29.115" y="72.691" width="154.823" height="1.109" style="fill:#fff;stroke:#fff;stroke-width:0.4px;"/><g><path d="M215.984,73.704c0,4.572 -1.741,8.467 -5.224,11.684c-3.483,3.217 -7.67,4.825 -12.562,4.825c-2.871,0 -6.3,-0.877 -10.288,-2.632c-1.064,-0.478 -1.861,-0.718 -2.393,-0.718c-0.638,0 -1.037,0.771 -1.196,2.313c-0.054,0.798 -0.399,1.197 -1.037,1.197c-0.532,0 -0.798,-0.319 -0.798,-0.957c0,-0.426 0.027,-0.745 0.08,-0.957c0.425,-3.244 0.638,-6.248 0.638,-9.013c0,-0.532 -0.053,-2.02 -0.16,-4.466c-0.053,-0.319 -0.079,-0.745 -0.079,-1.276c0,-0.798 0.319,-1.197 0.957,-1.197c0.532,0 0.904,0.638 1.116,1.914c1.383,9.465 5.876,14.197 13.479,14.197c3.244,0 5.756,-0.917 7.537,-2.751c1.782,-1.835 2.672,-4.427 2.672,-7.777c0,-2.977 -0.864,-5.516 -2.592,-7.617c-1.728,-2.1 -4.692,-4.187 -8.893,-6.261c-5.051,-2.499 -8.56,-4.918 -10.528,-7.257c-1.967,-2.34 -2.951,-5.238 -2.951,-8.694c0,-4.413 1.423,-8.055 4.267,-10.927c2.845,-2.871 6.447,-4.307 10.807,-4.307c1.808,0 4.307,0.612 7.498,1.835c1.116,0.425 1.94,0.638 2.472,0.638c0.585,0 0.97,-0.106 1.157,-0.319c0.186,-0.213 0.358,-0.771 0.518,-1.675c0.106,-0.532 0.399,-0.798 0.877,-0.798c0.532,0 0.798,0.319 0.798,0.957c0,0.426 -0.027,0.745 -0.08,0.958c-0.159,1.276 -0.239,2.818 -0.239,4.625c0,2.553 0.133,4.573 0.399,6.062l0.079,1.276c0.054,0.585 -0.186,0.877 -0.717,0.877c-0.585,0 -0.984,-0.611 -1.197,-1.834c-0.585,-3.137 -1.967,-5.756 -4.147,-7.856c-2.18,-2.1 -4.626,-3.15 -7.338,-3.15c-2.658,0 -4.772,0.85 -6.341,2.552c-1.568,1.701 -2.352,4.014 -2.352,6.939c0,3.403 1.143,6.141 3.429,8.215c1.276,1.169 4.041,2.818 8.295,4.945c4.998,2.499 8.587,5.038 10.767,7.616c2.18,2.579 3.27,5.517 3.27,8.814Z" style="fill:#fff;fill-rule:nonzero;"/><path d="M254.324,77.372c0,0.16 -0.027,0.612 -0.08,1.356c-0.213,2.872 -0.319,4.892 -0.319,6.062c0,0.797 0.08,1.967 0.239,3.509l0,0.558c0,0.532 -0.213,0.798 -0.638,0.798c-0.425,0 -0.851,-0.452 -1.276,-1.356l-0.718,-1.515c-0.053,-0.107 -0.133,-0.266 -0.239,-0.479c-2.393,2.393 -5.689,3.589 -9.89,3.589c-5.37,0 -9.837,-1.794 -13.399,-5.383c-3.563,-3.589 -5.344,-8.096 -5.344,-13.519c0,-5.424 1.648,-9.877 4.945,-13.36c3.297,-3.482 7.497,-5.224 12.602,-5.224c3.988,0 7.337,1.037 10.049,3.111c0.213,0.213 0.425,0.319 0.638,0.319c0.266,0 0.505,-0.346 0.718,-1.037c0.372,-1.17 0.824,-1.755 1.356,-1.755c0.372,0 0.558,0.213 0.558,0.638c0,0.054 -0.053,0.293 -0.159,0.718c-0.319,1.808 -0.506,4.493 -0.559,8.056c-0.053,2.233 -0.345,3.35 -0.877,3.35c-0.425,0 -0.718,-0.399 -0.877,-1.197c-0.532,-2.871 -1.17,-4.998 -1.915,-6.38c-1.701,-3.031 -4.493,-4.547 -8.374,-4.547c-3.244,0 -5.822,1.569 -7.736,4.706c-1.915,3.137 -2.872,7.391 -2.872,12.761c0,5.371 1.064,9.624 3.191,12.761c2.126,3.138 4.998,4.706 8.613,4.706c2.765,0 5.065,-0.944 6.899,-2.831c1.835,-1.888 3.044,-4.507 3.629,-7.856c0.266,-1.383 0.612,-2.074 1.037,-2.074c0.532,0 0.798,0.505 0.798,1.515Z" style="fill:#fff;fill-rule:nonzero;"/><path d="M339.207,87.342c0,1.702 -1.489,2.552 -4.466,2.552c-2.871,0 -5.211,-1.09 -7.019,-3.27c-0.797,-0.957 -1.329,-1.914 -1.595,-2.871c-0.266,-0.957 -0.585,-3.217 -0.957,-6.779c-0.266,-2.287 -0.997,-3.882 -2.193,-4.786c-1.197,-0.904 -3.257,-1.409 -6.182,-1.515l0,16.43c-0.159,0.744 1.197,1.116 4.068,1.116c0.585,0 0.877,0.186 0.877,0.559c0,0.372 -0.372,0.558 -1.116,0.558c-0.585,0 -1.143,-0.027 -1.675,-0.08l-2.792,0c-1.169,0 -2.578,0.027 -4.227,0.08c-1.595,0 -2.472,0 -2.632,0l-1.515,0c-1.489,0 -2.233,-0.186 -2.233,-0.558c0,-0.426 0.266,-0.638 0.797,-0.638c0.16,0 0.426,0.026 0.798,0.079l0.319,0c1.808,0 2.712,-0.372 2.712,-1.116l0,-31.504c0,-0.585 -0.147,-0.971 -0.439,-1.157c-0.293,-0.186 -1.063,-0.279 -2.313,-0.279c-1.25,0 -1.874,-0.213 -1.874,-0.638c0,-0.372 0.372,-0.558 1.116,-0.558l0.559,0c0.85,0.106 3.376,0.159 7.577,0.159c1.754,0 3.19,-0.026 4.306,-0.08c1.117,-0.053 1.994,-0.079 2.632,-0.079c3.563,0 6.421,0.731 8.574,2.193c2.154,1.462 3.23,3.39 3.23,5.782c0,2.606 -1.143,4.719 -3.429,6.341c-2.287,1.622 -5.503,2.566 -9.651,2.831c4.467,0.479 7.537,1.649 9.212,3.51c1.675,1.861 2.752,5.211 3.23,10.049c0.319,3.297 1.303,4.945 2.951,4.945c0.266,0 0.399,-0.08 0.399,-0.239c0,-0.053 -0.066,-0.226 -0.199,-0.519c-0.133,-0.292 -0.2,-0.518 -0.2,-0.677c0,-1.011 0.532,-1.516 1.596,-1.516c1.169,0 1.754,0.558 1.754,1.675Zm-12.601,-25.921c0,-4.785 -2.367,-7.178 -7.099,-7.178c-1.223,0 -1.98,0.119 -2.273,0.359c-0.292,0.239 -0.439,0.811 -0.439,1.714l0,13.081c6.541,0 9.811,-2.659 9.811,-7.976Z" style="fill:#fff;fill-rule:nonzero;"/></g><path d="M212.714,64.89c-2.181,-2.578 -5.77,-5.116 -10.767,-7.616c-4.254,-2.126 -7.018,-3.776 -8.295,-4.946c-2.287,-2.073 -3.429,-4.811 -3.429,-8.214c0,-2.924 0.784,-5.237 2.352,-6.939c1.569,-1.701 3.682,-2.553 6.341,-2.553c2.712,0 5.157,1.051 7.338,3.151c2.18,2.101 3.562,4.72 4.147,7.856c0.212,1.224 0.611,1.834 1.197,1.834c0.531,0 0.77,-0.291 0.718,-0.877l-0.081,-1.276c-0.266,-1.488 -0.398,-3.509 -0.398,-6.062c0,-1.806 0.08,-3.349 0.239,-4.626c0.053,-0.211 0.08,-0.531 0.08,-0.957c0,-0.638 -0.266,-0.957 -0.797,-0.957c-0.479,0 -0.772,0.267 -0.877,0.798c-0.161,0.905 -0.333,1.463 -0.519,1.675c-0.187,0.213 -0.572,0.318 -1.157,0.318c-0.531,0 -1.356,-0.211 -2.472,-0.637c-3.19,-1.223 -5.69,-1.835 -7.497,-1.835c-4.361,0 -7.964,1.436 -10.808,4.307c-2.844,2.871 -4.266,6.514 -4.266,10.927c0,3.457 0.982,6.355 2.95,8.693c1.967,2.341 5.477,4.76 10.528,7.258c4.201,2.074 7.164,4.161 8.893,6.261c1.727,2.102 2.593,4.64 2.593,7.617c0,3.35 -0.892,5.943 -2.672,7.777c-1.782,1.834 -4.295,2.752 -7.537,2.752c-7.605,0 -12.097,-4.78 -13.48,-14.338c-0.213,-1.289 -0.585,-1.933 -1.116,-1.933c-0.638,0 -0.957,0.398 -0.957,1.196c0,0.533 0.026,0.957 0.08,1.276c0.106,2.446 0.159,3.935 0.159,4.466c0,2.766 -0.213,5.77 -0.637,9.013c-0.054,0.213 -0.081,0.532 -0.081,0.957c0,0.638 0.266,0.957 0.798,0.957c0.638,0 0.983,-0.381 1.036,-1.141c0.161,-1.472 0.559,-2.208 1.197,-2.208c0.531,0 1.329,0.239 2.393,0.717c3.988,1.755 7.417,2.632 10.288,2.632c4.892,0 9.079,-1.607 12.562,-4.825c3.482,-3.217 5.225,-7.111 5.225,-11.685c0,-3.295 -1.091,-6.233 -3.271,-8.813Z" style="fill:none;stroke:#fff;stroke-width:0.4px;"/><path d="M253.628,75.857c-0.426,0 -0.771,0.684 -1.037,2.048c-0.586,3.308 -1.794,5.894 -3.629,7.759c-1.834,1.864 -4.135,2.795 -6.898,2.795c-3.618,0 -6.489,-1.558 -8.615,-4.673c-2.127,-3.116 -3.19,-7.34 -3.19,-12.674c0,-5.334 0.957,-9.559 2.871,-12.674c1.915,-3.116 4.493,-4.674 7.737,-4.674c3.88,0 6.672,1.506 8.374,4.517c0.744,1.373 1.382,3.486 1.914,6.338c0.16,0.793 0.452,1.189 0.878,1.189c0.531,0 0.824,-1.117 0.877,-3.35c0.052,-3.562 0.239,-6.247 0.559,-8.055c0.105,-0.426 0.159,-0.665 0.159,-0.718c0,-0.426 -0.187,-0.639 -0.559,-0.639c-0.532,0 -0.984,0.586 -1.355,1.755c-0.213,0.692 -0.452,1.037 -0.718,1.037c-0.213,0 -0.427,-0.106 -0.639,-0.319c-2.71,-2.073 -6.061,-3.11 -10.048,-3.11c-5.105,0 -9.306,1.738 -12.602,5.213c-3.298,3.475 -4.945,7.92 -4.945,13.33c0,5.413 1.781,9.909 5.344,13.49c3.561,3.582 8.028,5.373 13.399,5.373c4.199,0 7.497,-1.169 9.89,-3.51c0.106,0.213 0.185,0.373 0.239,0.479l0.718,1.515c0.424,0.905 0.85,1.356 1.276,1.356c0.425,0 0.638,-0.267 0.638,-0.797l0,-0.559c-0.159,-1.542 -0.24,-2.712 -0.24,-3.509c0,-1.169 0.107,-3.19 0.32,-6.062c0.053,-0.743 0.08,-1.196 0.08,-1.355c0,-1.01 -0.267,-1.516 -0.798,-1.516Z" style="fill:none;stroke:#fff;stroke-width:0.4px;"/><path d="M337.45,85.587c-1.064,0 -1.595,0.492 -1.595,1.475c0,0.155 0.066,0.376 0.199,0.66c0.132,0.284 0.2,0.452 0.2,0.504c0,0.155 -0.134,0.232 -0.399,0.232c-1.649,0 -2.633,-1.64 -2.951,-4.922c-0.478,-4.817 -1.556,-8.151 -3.23,-10.005c-1.675,-1.851 -4.745,-3.017 -9.212,-3.494c4.147,-0.264 7.364,-1.203 9.65,-2.818c2.286,-1.614 3.43,-3.718 3.43,-6.313c0,-2.381 -1.077,-4.3 -3.231,-5.756c-2.153,-1.456 -5.011,-2.183 -8.573,-2.183l-2.632,0l-4.307,0l-7.577,0l-0.558,0c-0.745,0 -1.117,0.186 -1.117,0.557c0,0.427 0.625,0.639 1.875,0.639c1.248,0 2.019,0.093 2.312,0.278c0.292,0.188 0.439,0.573 0.439,1.158l0,31.504c0,0.745 -0.905,1.116 -2.711,1.116l-0.32,0l-0.797,0c-0.533,0 -0.798,0.199 -0.798,0.596c0,0.347 0.744,0.521 2.233,0.521l12.841,0c0.744,0 1.117,-0.186 1.117,-0.559c0,-0.371 -0.288,-0.558 -0.864,-0.558c-2.827,0 -4.161,-0.371 -4.001,-1.116l0,-16.43c2.913,0.105 4.966,0.609 6.158,1.509c1.191,0.899 1.921,2.488 2.187,4.765c0.37,3.548 0.687,5.799 0.953,6.752c0.263,0.953 0.795,1.907 1.59,2.859c1.8,2.171 4.132,3.257 6.994,3.257c2.966,0 4.45,-0.851 4.45,-2.553c0,-1.116 -0.586,-1.675 -1.755,-1.675Zm-20.577,-16.19l0,-13.012c0,-0.899 0.144,-1.467 0.434,-1.705c0.289,-0.239 1.041,-0.358 2.255,-0.358c4.693,0 7.041,2.38 7.041,7.141c0,5.289 -3.244,7.934 -9.73,7.934Z" style="fill:none;stroke:#fff;stroke-width:0.4px;"/><path d="M371.506,80.642c0,0.054 -0.027,0.386 -0.08,0.997c-0.053,0.612 -0.08,1.157 -0.08,1.635l-0.08,4.547c0,0.531 0.027,1.116 0.08,1.754l-13.239,-0.239l-15.154,0.08c-1.117,0 -1.675,-0.186 -1.675,-0.559c0,-0.425 0.319,-0.638 0.957,-0.638c1.701,0 2.698,-0.119 2.991,-0.359c0.292,-0.239 0.438,-1.103 0.438,-2.592l0,-27.436c0,-2.18 -0.186,-3.337 -0.558,-3.47c-0.372,-0.133 -1.303,-0.199 -2.791,-0.199c-0.638,0 -0.957,-0.186 -0.957,-0.558c0,-0.426 0.345,-0.638 1.036,-0.638l3.51,0c0.585,0.053 0.877,0.079 0.877,0.079l1.994,0c0.266,0 1.595,-0.026 3.988,-0.079l13.479,0c1.382,0 2.525,-0.053 3.429,-0.16l0,0.558l0.08,1.197c0.106,0.797 0.319,3.19 0.638,7.178c0.053,0.266 0.08,0.585 0.08,0.957c0,0.691 -0.186,1.037 -0.558,1.037c-0.479,0 -0.825,-0.532 -1.037,-1.595c-0.745,-4.041 -2.154,-6.407 -4.227,-7.099c-1.17,-0.372 -3.935,-0.558 -8.295,-0.558l-4.068,0l0,14.915l1.914,0c3.403,0 5.504,-0.279 6.301,-0.838c0.798,-0.558 1.33,-2.087 1.595,-4.586c0.16,-1.489 0.479,-2.233 0.958,-2.233c0.531,0 0.797,0.532 0.797,1.595c0,0.638 -0.04,1.622 -0.12,2.951c-0.079,1.329 -0.119,2.34 -0.119,3.031c0,3.456 0.08,5.822 0.239,7.098c0.053,0.426 0.08,0.771 0.08,1.037c0,0.851 -0.266,1.276 -0.798,1.276c-0.478,0 -0.797,-0.664 -0.957,-1.994c-0.319,-2.871 -0.851,-4.586 -1.595,-5.144c-0.744,-0.558 -2.845,-0.837 -6.301,-0.837l-1.994,0l0,17.227c7.816,-0.053 12.416,-0.266 13.798,-0.638c2.127,-0.585 3.377,-3.137 3.749,-7.657c0.053,-0.797 0.345,-1.196 0.877,-1.196c0.532,0 0.798,0.718 0.798,2.153Z" style="fill:#fff;fill-rule:nonzero;"/><path d="M370.708,78.489c-0.532,0 -0.825,0.399 -0.877,1.196c-0.372,4.521 -1.615,7.073 -3.731,7.658c-1.377,0.372 -5.955,0.585 -13.736,0.637l0,-17.227l1.966,0c3.409,0 5.481,0.279 6.215,0.838c0.734,0.557 1.259,2.272 1.573,5.144c0.157,1.329 0.473,1.993 0.944,1.993c0.524,0 0.787,-0.425 0.787,-1.275c0,-0.266 -0.02,-0.611 -0.06,-1.037c-0.119,-1.277 -0.18,-3.642 -0.18,-7.099c0,-0.69 0.04,-1.701 0.12,-3.03c0.081,-1.329 0.12,-2.314 0.12,-2.951c0,-1.064 -0.267,-1.596 -0.797,-1.596c-0.479,0 -0.798,0.745 -0.957,2.233c-0.265,2.5 -0.792,4.029 -1.583,4.586c-0.791,0.559 -2.874,0.838 -6.248,0.838l-1.9,0l0,-14.915l4.05,0c4.341,0 7.094,0.188 8.258,0.559c2.064,0.691 3.468,3.058 4.209,7.098c0.211,1.065 0.555,1.595 1.032,1.595c0.37,0 0.556,-0.34 0.556,-1.021c0,-0.367 -0.028,-0.681 -0.08,-0.944c-0.319,-3.929 -0.532,-6.287 -0.638,-7.074l-0.08,-1.179l0,-0.548l-3.429,0l-4.706,0l-8.773,0l-3.988,0l-1.994,0l-0.878,0l-1.594,0l-1.914,0c-0.692,0 -1.038,0.212 -1.038,0.637c0,0.372 0.32,0.559 0.957,0.559c1.489,0 2.419,0.066 2.792,0.199c0.372,0.133 0.558,1.29 0.558,3.469l0,27.436c0,1.49 -0.146,2.354 -0.438,2.593c-0.293,0.239 -1.29,0.358 -2.992,0.358c-0.637,0 -0.957,0.243 -0.957,0.723c0,0.422 0.562,0.634 1.684,0.634l15.235,-0.239l13.31,0.239c-0.159,-0.58 -0.239,-1.112 -0.239,-1.596l0,-4.623c0,-0.486 0.04,-1.041 0.119,-1.662c0.08,-0.622 0.12,-0.96 0.12,-1.015c0,-1.461 -0.267,-2.191 -0.798,-2.191Z" style="fill:none;stroke:#fff;stroke-width:0.4px;"/><path d="M108.101,58.719c0,11.281 -10.312,20.426 -23.031,20.426c-12.719,0 -23.03,-9.145 -23.03,-20.426c0,-11.284 10.311,-20.429 23.03,-20.429c12.719,0 23.031,9.145 23.031,20.429" style="fill:#00a99d;fill-rule:nonzero;"/><path d="M108.101,58.718c0,-11.275 -10.32,-20.428 -23.031,-20.428c-12.711,0 -23.03,9.153 -23.03,20.428c0,11.274 10.319,20.427 23.03,20.427c12.711,0 23.031,-9.153 23.031,-20.427Z" style="fill:none;stroke:#00a99d;stroke-width:0.4px;"/><rect x="212.21" y="46.631" width="160.014" height="1.11" style="fill:#fff;stroke:#fff;stroke-width:0.4px;"/><path d="M304.444,61.875c0,11.283 -10.311,20.428 -23.031,20.428c-12.719,0 -23.03,-9.145 -23.03,-20.428c0,-11.281 10.311,-20.426 23.03,-20.426c12.72,0 23.031,9.145 23.031,20.426" style="fill:#3b4098;fill-rule:nonzero;"/><path d="M304.444,61.876c0,-11.274 -10.319,-20.427 -23.03,-20.427c-12.711,0 -23.031,9.153 -23.031,20.427c0,11.274 10.32,20.427 23.031,20.427c12.711,0 23.03,-9.153 23.03,-20.427Z" style="fill:none;stroke:#3b4098;stroke-width:0.4px;"/></g></svg>