<svg xmlns="http://www.w3.org/2000/svg" xml:space="preserve" style="fill-rule:evenodd;clip-rule:evenodd;stroke-miterlimit:10" viewBox="0 0 498 309"><path d="M106.337 157.634H429.25v2.581H106.337z" style="stroke:#000;stroke-width:.87px"/><path d="M174.076 19.861c0 .988-1.066 1.481-3.197 1.481-6.896.124-11.159 1.297-12.789 3.519-1.505 1.358-6.897 11.853-16.175 31.485-4.138 8.766-8.025 16.483-11.661 23.15-2.508 4.568-3.95 7.686-4.326 9.353-.376 1.666-.564 5.278-.564 10.834v35.003c0 4.075.533 6.482 1.599 7.223 1.065.741 4.796 1.296 11.19 1.667 3.386.247 5.078.864 5.078 1.852 0 .988-.877 1.481-2.633 1.481h-2.257l-26.331-.555c-7.397 0-13.479.123-18.243.37-.753.124-1.63.185-2.633.185-1.756 0-2.633-.555-2.633-1.666 0-1.112 1.441-1.729 4.325-1.852 6.897-.247 10.972-.865 12.225-1.852 1.254-.988 1.881-3.951 1.881-8.89V93.571c-1.254-2.716-4.89-9.939-10.908-21.668l-18.808-36.67c-1.881-3.581-4.138-7.594-6.771-12.039-1.379-1.234-4.357-1.852-8.934-1.852-4.576 0-6.865-.679-6.865-2.037 0-.988 1.004-1.481 3.01-1.481 2.633 0 7.899.123 15.798.37 4.514.123 7.774.185 9.78.185l21.817-.185c.878-.124 1.881-.185 3.01-.185 2.257 0 3.385.617 3.385 1.852 0 1.111-2.131 1.667-6.395 1.667-7.773 0-11.66 1.358-11.66 4.074 0 2.099 3.949 10.557 11.849 25.373l17.115 32.04c3.134-5.556 6.708-12.409 10.72-20.558l11.097-22.039c4.137-7.902 6.206-13.087 6.206-15.557 0-1.605-1.065-2.531-3.197-2.778-4.389-.617-7.335-.864-8.84-.741-2.758.124-4.137-.493-4.137-1.852 0-.987 1.191-1.481 3.573-1.481l10.909.185 6.206-.185c12.79-.371 19.184.247 19.184 1.852ZM341.151 64.124c0 .864-1.003 1.296-3.009 1.296h-.94a38.516 38.516 0 0 0-3.762-.185c-2.006 0-3.009 1.235-3.009 3.704v34.263c0 11.976-.251 19.693-.752 23.15-.502 3.457-1.819 6.914-3.95 10.371-4.89 7.779-13.542 11.668-25.955 11.668-10.281 0-18.494-2.346-24.638-7.038-5.642-4.321-8.464-12.655-8.464-25.002V77.273c0-6.667-.219-10.309-.658-10.927-.439-.617-2.288-.926-5.548-.926-2.633 0-3.95-.493-3.95-1.481 0-.864.878-1.297 2.633-1.297h5.831c1.253.124 2.194.186 2.821.186h15.798c.878 0 1.944-.062 3.198-.186h2.069c2.257 0 3.385.494 3.385 1.482 0 1.235-2.32 1.79-6.959 1.667-1.379 0-2.194.216-2.445.648-.251.432-.376 1.821-.376 4.167v44.449c0 12.1 1.567 19.94 4.702 23.52 3.511 4.075 8.714 6.112 15.61 6.112 9.655 0 16.238-3.951 19.749-11.853 1.755-3.951 2.633-10.31 2.633-19.076v-2.037a46.15 46.15 0 0 1-.188-4.26V68.939c0-1.605-.314-2.593-.941-2.963-.627-.37-2.351-.556-5.172-.556-2.821 0-4.232-.555-4.232-1.666 0-.865.753-1.297 2.257-1.297a9.75 9.75 0 0 1 1.881.185l8.652.186h2.068c1.38-.124 3.386-.186 6.019-.186h2.633c2.006 0 3.009.494 3.009 1.482ZM426.844 142.465c0 3.951-3.511 5.926-10.533 5.926-6.771 0-12.288-2.531-16.551-7.593-1.881-2.223-3.134-4.445-3.761-6.668-.627-2.222-1.38-7.469-2.257-15.742-.627-5.309-2.351-9.013-5.172-11.112-2.822-2.099-7.68-3.272-14.576-3.519v38.152c-.377 1.728 2.821 2.593 9.592 2.593 1.379 0 2.068.432 2.068 1.296 0 .864-.877 1.297-2.633 1.297-1.379 0-2.695-.062-3.949-.186h-6.583c-2.759 0-6.081.062-9.968.186h-9.78c-3.511 0-5.266-.433-5.266-1.297 0-.988.626-1.481 1.88-1.481.376 0 1.003.061 1.881.185h.752c4.264 0 6.395-.865 6.395-2.593V68.754c0-1.358-.345-2.253-1.034-2.685-.69-.432-2.508-.649-5.455-.649-2.946 0-4.419-.493-4.419-1.481 0-.864.877-1.297 2.633-1.297h1.316c2.006.247 7.962.371 17.868.371 4.137 0 7.523-.062 10.156-.185 2.633-.124 4.702-.186 6.206-.186 8.401 0 15.141 1.698 20.219 5.094 5.078 3.395 7.617 7.871 7.617 13.427 0 6.05-2.696 10.957-8.087 14.723-5.392 3.766-12.978 5.958-22.758 6.575 10.533 1.111 17.774 3.827 21.723 8.149 3.95 4.321 6.489 12.1 7.617 23.335.753 7.655 3.072 11.483 6.959 11.483.627 0 .941-.185.941-.556 0-.123-.157-.525-.471-1.204-.313-.679-.47-1.203-.47-1.574 0-2.346 1.254-3.519 3.762-3.519 2.758 0 4.138 1.297 4.138 3.89Zm-29.717-60.191c0-11.112-5.579-16.668-16.739-16.668-2.884 0-4.67.277-5.36.833-.69.556-1.034 1.883-1.034 3.982v30.373c15.422 0 23.133-6.173 23.133-18.52Z" style="fill-rule:nonzero"/><path d="M155.08 17.823h-17.115c-2.383 0-3.573.501-3.573 1.496 0 1.372 1.378 1.997 4.137 1.869 1.505-.121 4.449.128 8.84.75 2.13.249 3.197 1.187 3.197 2.807 0 2.494-2.042 7.729-6.127 15.711l-11.103 22.039c-4.02 8.142-7.599 14.989-10.737 20.54l-17.186-32.052C97.522 36.08 93.579 27.572 93.579 25.46c0-2.732 3.885-4.098 11.66-4.098 4.261 0 6.395-.559 6.395-1.676 0-1.241-1.128-1.863-3.386-1.863-1.128 0-2.133.093-3.009.278l-21.817.278c-2.007 0-5.266-.061-9.78-.186-7.899-.246-13.165-.37-15.798-.37-2.005 0-3.01.495-3.01 1.481 0 1.361 2.289 2.038 6.865 2.038 4.576 0 7.553.619 8.934 1.852 2.633 4.444 4.89 8.458 6.771 12.038l18.808 36.67c6.018 11.732 9.653 18.954 10.908 21.669v38.933c0 4.92-.629 7.871-1.881 8.855-1.254.984-5.33 1.6-12.225 1.846-2.886.13-4.326.781-4.326 1.95s.876 1.755 2.634 1.755c1.002 0 1.881-.061 2.633-.186 4.763-.246 10.844-.37 18.243-.37l26.331.556h2.257c1.754 0 2.633-.466 2.633-1.401 0-.931-1.693-1.514-5.078-1.748-6.394-.37-10.127-.928-11.191-1.673-1.066-.74-1.598-3.157-1.598-7.243V99.741c0-5.57.188-9.191.564-10.864.376-1.672 1.816-4.797 4.326-9.382 3.635-6.666 7.523-14.381 11.661-23.149 9.277-19.84 14.67-30.447 16.174-31.817 1.629-2.246 5.893-3.43 12.79-3.557 2.13 0 3.197-.465 3.197-1.4 0-1.534-6.394-2.119-19.184-1.748ZM338.452 62.643h-21.253c-1.505 0-2.257.431-2.257 1.29 0 1.106 1.434 1.658 4.308 1.658 2.871 0 4.626.186 5.266.556.638.37.958 1.351.958 2.949v44.616c0 8.728-.878 15.059-2.633 18.99-3.512 7.868-10.094 11.8-19.748 11.8-6.897 0-12.101-2.032-15.61-6.097-3.136-3.572-4.702-11.393-4.702-23.466V70.595c0-2.339.123-3.724.376-4.156.25-.431 1.064-.648 2.445-.648 4.637.124 6.959-.431 6.959-1.667 0-.987-1.129-1.481-3.386-1.481H259.459c-1.757 0-2.633.431-2.633 1.293 0 .987 1.316 1.478 3.949 1.478 3.26 0 5.108.31 5.549.927.438.616.658 4.251.658 10.901v38.994c0 12.321 2.821 20.636 8.464 24.947 6.141 4.682 14.355 7.023 24.638 7.023 12.413 0 21.065-3.872 25.954-11.616 2.131-3.44 3.448-6.881 3.95-10.325.5-3.44.753-11.123.753-23.046V69.107c0-2.456 1.002-3.687 3.009-3.687h4.702c2.004 0 3.009-.43 3.009-1.296 0-.987-1.005-1.481-3.009-1.481ZM422.708 138.39c-2.509 0-3.761 1.144-3.761 3.424 0 .361.156.874.47 1.533.312.66.47 1.051.47 1.169 0 .362-.314.542-.94.542-3.888 0-6.207-3.809-6.959-11.431-1.129-11.184-3.668-18.928-7.617-23.231-3.95-4.3-11.191-7.006-21.724-8.114 9.781-.614 17.366-2.793 22.758-6.543 5.389-3.75 8.087-8.635 8.087-14.661 0-5.529-2.539-9.986-7.617-13.366-5.078-3.38-11.819-5.069-20.218-5.069H350.11c-1.757 0-2.633.434-2.633 1.296 0 .99 1.472 1.481 4.42 1.481 2.944 0 4.764.218 5.454.649.688.434 1.034 1.328 1.034 2.685v73.156c0 1.73-2.133 2.592-6.394 2.592h-2.633c-1.255 0-1.881.463-1.881 1.383 0 .808 1.754 1.21 5.266 1.21h30.281c1.754 0 2.633-.432 2.633-1.297 0-.862-.679-1.296-2.037-1.296-6.668 0-9.812-.862-9.436-2.592v-38.153c6.871.246 11.711 1.415 14.523 3.505 2.81 2.089 4.529 5.778 5.155 11.066.872 8.238 1.622 13.464 2.248 15.678.623 2.214 1.875 4.428 3.75 6.639 4.246 5.041 9.744 7.561 16.492 7.561 6.994 0 10.494-1.973 10.494-5.926 0-2.593-1.381-3.89-4.138-3.89Zm-48.524-37.596V70.58c0-2.086.341-3.406 1.025-3.959.683-.552 2.455-.83 5.317-.83 11.067 0 16.603 5.527 16.603 16.581 0 12.282-7.649 18.422-22.945 18.422Z" style="fill:none;stroke:#000;stroke-width:.93px"/><path d="M259.039 125.191c0 26.196-24.314 47.433-54.31 47.433-29.994 0-54.307-21.237-54.307-47.433 0-26.197 24.313-47.435 54.307-47.435 29.996 0 54.31 21.238 54.31 47.435" style="fill:#00a99d;fill-rule:nonzero"/><path d="M259.039 125.19c0-26.18-24.335-47.434-54.308-47.434-29.974 0-54.309 21.254-54.309 47.434 0 26.179 24.335 47.434 54.309 47.434 29.973 0 54.308-21.255 54.308-47.434Z" style="fill:none;stroke:#00a99d;stroke-width:.93px"/><path d="M101.935 243.745c0 10.618-4.106 19.662-12.319 27.132-8.213 7.47-18.087 11.205-29.622 11.205-6.771 0-14.858-2.037-24.262-6.112-2.508-1.111-4.389-1.666-5.643-1.666-1.504 0-2.445 1.79-2.821 5.37-.125 1.852-.94 2.778-2.445 2.778-1.254 0-1.881-.74-1.881-2.222 0-.988.063-1.729.189-2.222 1.003-7.532 1.504-14.508 1.504-20.928 0-1.235-.125-4.692-.376-10.372-.125-.74-.188-1.728-.188-2.963 0-1.852.752-2.778 2.257-2.778 1.254 0 2.131 1.482 2.633 4.445 3.26 21.977 13.855 32.966 31.785 32.966 7.649 0 13.573-2.13 17.774-6.389 4.2-4.26 6.3-10.279 6.3-18.058 0-6.914-2.037-12.81-6.112-17.686-4.075-4.877-11.066-9.724-20.971-14.539-11.912-5.803-20.187-11.421-24.826-16.853-4.64-5.433-6.959-12.162-6.959-20.187 0-10.248 3.354-18.706 10.062-25.373 6.708-6.667 15.203-10.001 25.484-10.001 4.264 0 10.157 1.42 17.68 4.26 2.633.988 4.576 1.481 5.83 1.481 1.38 0 2.289-.247 2.727-.74.439-.494.847-1.791 1.223-3.89.251-1.234.94-1.852 2.069-1.852 1.254 0 1.881.741 1.881 2.223 0 .987-.063 1.728-.189 2.222-.376 2.963-.564 6.544-.564 10.742 0 5.926.314 10.618.941 14.075l.188 2.963c.125 1.359-.439 2.038-1.693 2.038-1.379 0-2.32-1.42-2.821-4.26-1.379-7.285-4.639-13.365-9.78-18.242-5.141-4.877-10.909-7.316-17.303-7.316-6.27 0-11.254 1.976-14.953 5.927-3.699 3.951-5.548 9.321-5.548 16.112 0 7.902 2.696 14.261 8.087 19.076 3.01 2.716 9.53 6.544 19.561 11.483 11.786 5.803 20.249 11.698 25.39 17.686 5.141 5.989 7.711 12.81 7.711 20.465ZM192.487 252.264c0 .371-.063 1.42-.188 3.149-.502 6.667-.752 11.359-.752 14.075 0 1.852.188 4.569.564 8.149v1.297c0 1.234-.502 1.852-1.505 1.852s-2.006-1.05-3.009-3.149l-1.693-3.519-.564-1.111c-5.642 5.556-13.416 8.334-23.322 8.334-12.664 0-23.196-4.167-31.597-12.501s-12.601-18.798-12.601-31.392c0-12.593 3.887-22.934 11.661-31.021 7.774-8.087 17.679-12.131 29.716-12.131 9.404 0 17.303 2.408 23.698 7.223.502.494 1.003.741 1.505.741.627 0 1.191-.803 1.692-2.408.878-2.716 1.944-4.074 3.198-4.074.877 0 1.316.494 1.316 1.481 0 .124-.125.68-.376 1.667-.752 4.198-1.191 10.433-1.316 18.706-.126 5.185-.815 7.778-2.069 7.778-1.003 0-1.693-.926-2.069-2.778-1.254-6.667-2.759-11.606-4.514-14.816-4.012-7.038-10.595-10.557-19.748-10.557-7.649 0-13.73 3.643-18.244 10.927-4.514 7.285-6.771 17.162-6.771 29.633 0 12.47 2.508 22.347 7.523 29.632 5.016 7.285 11.787 10.927 20.313 10.927 6.52 0 11.943-2.192 16.269-6.575 4.325-4.383 7.178-10.464 8.557-18.242.627-3.21 1.442-4.815 2.445-4.815 1.254 0 1.881 1.173 1.881 3.518ZM392.514 275.415c0 3.951-3.511 5.926-10.533 5.926-6.771 0-12.288-2.531-16.551-7.593-1.88-2.222-3.134-4.445-3.761-6.667-.627-2.223-1.38-7.47-2.257-15.743-.627-5.309-2.351-9.013-5.172-11.112-2.822-2.099-7.68-3.272-14.576-3.518v38.151c-.377 1.729 2.821 2.593 9.592 2.593 1.379 0 2.068.432 2.068 1.296 0 .865-.877 1.297-2.633 1.297-1.379 0-2.695-.062-3.949-.185h-6.583c-2.759 0-6.081.061-9.968.185h-9.78c-3.511 0-5.266-.432-5.266-1.297 0-.987.626-1.481 1.88-1.481.376 0 1.003.062 1.881.185h.752c4.264 0 6.395-.864 6.395-2.593v-73.155c0-1.358-.345-2.253-1.034-2.685-.69-.432-2.508-.648-5.455-.648-2.946 0-4.419-.494-4.419-1.482 0-.864.877-1.296 2.633-1.296h1.316c2.006.247 7.962.37 17.868.37 4.137 0 7.523-.062 10.156-.185 2.633-.124 4.702-.185 6.206-.185 8.401 0 15.141 1.697 20.219 5.093 5.078 3.395 7.617 7.871 7.617 13.427 0 6.05-2.696 10.958-8.087 14.723-5.392 3.766-12.978 5.958-22.758 6.575 10.533 1.111 17.774 3.828 21.723 8.149 3.95 4.321 6.489 12.1 7.617 23.335.753 7.655 3.072 11.483 6.959 11.483.627 0 .941-.185.941-.556 0-.123-.157-.524-.471-1.203-.313-.68-.47-1.204-.47-1.575 0-2.346 1.254-3.518 3.762-3.518 2.758 0 4.138 1.296 4.138 3.889Zm-29.717-60.191c0-11.112-5.579-16.668-16.739-16.668-2.884 0-4.67.278-5.36.833-.69.556-1.034 1.883-1.034 3.982v30.373c15.422 0 23.133-6.173 23.133-18.52Z" style="fill-rule:nonzero"/><path d="M94.224 223.28c-5.143-5.987-13.606-11.882-25.391-17.687-10.032-4.937-16.55-8.765-19.56-11.483-5.392-4.814-8.087-11.173-8.087-19.075 0-6.789 1.849-12.16 5.548-16.112 3.697-3.951 8.681-5.927 14.952-5.927 6.395 0 12.161 2.439 17.304 7.315 5.139 4.879 8.399 10.959 9.78 18.242.499 2.842 1.44 4.26 2.821 4.26 1.252 0 1.816-.677 1.693-2.037l-.188-2.963c-.629-3.456-.941-8.149-.941-14.076 0-4.195.188-7.778.564-10.741.124-.492.189-1.234.189-2.223 0-1.481-.629-2.222-1.881-2.222-1.129 0-1.82.619-2.069 1.852-.377 2.101-.785 3.398-1.223 3.889-.441.495-1.348.741-2.727.741-1.255 0-3.197-.492-5.83-1.482-7.523-2.838-13.418-4.259-17.68-4.259-10.282 0-18.778 3.334-25.484 10.001-6.709 6.667-10.062 15.126-10.062 25.372 0 8.027 2.318 14.756 6.959 20.188 4.637 5.434 12.912 11.052 24.826 16.853 9.904 4.815 16.895 9.662 20.97 14.538 4.074 4.879 6.113 10.773 6.113 17.686 0 7.78-2.101 13.798-6.301 18.058-4.202 4.26-10.127 6.39-17.773 6.39-17.932 0-28.526-11.098-31.785-33.293-.503-2.993-1.382-4.489-2.633-4.489-1.505 0-2.257.926-2.257 2.779 0 1.235.062 2.221.188 2.963.25 5.68.376 9.138.376 10.371 0 6.423-.502 13.399-1.505 20.928-.126.495-.188 1.236-.188 2.222 0 1.483.626 2.224 1.881 2.224 1.505 0 2.318-.886 2.445-2.652.376-3.417 1.317-5.127 2.821-5.127 1.252 0 3.133.555 5.643 1.666 9.404 4.076 17.491 6.113 24.262 6.113 11.534 0 21.408-3.734 29.622-11.205 8.211-7.469 12.319-16.512 12.319-27.132 0-7.654-2.571-14.475-7.711-20.465ZM190.706 248.745c-1.005 0-1.819 1.586-2.445 4.755-1.381 7.683-4.232 13.687-8.557 18.016-4.327 4.33-9.751 6.492-16.269 6.492-8.529 0-15.299-3.618-20.313-10.853-5.016-7.234-7.523-17.044-7.523-29.43 0-12.384 2.257-22.195 6.771-29.429 4.514-7.235 10.594-10.852 18.243-10.852 9.152 0 15.734 3.496 19.749 10.488 1.754 3.188 3.259 8.096 4.513 14.717.377 1.84 1.064 2.761 2.069 2.761 1.252 0 1.943-2.593 2.069-7.778.124-8.271.565-14.507 1.317-18.706.25-.987.376-1.542.376-1.667 0-.987-.441-1.482-1.316-1.482-1.255 0-2.322 1.361-3.198 4.075-.503 1.606-1.067 2.408-1.693 2.408-.502 0-1.005-.246-1.504-.742-6.395-4.814-14.294-7.222-23.698-7.222-12.037 0-21.944 4.037-29.716 12.104-7.776 8.072-11.661 18.391-11.661 30.955 0 12.568 4.199 23.009 12.601 31.326 8.399 8.316 18.931 12.475 31.597 12.475 9.903 0 17.679-2.715 23.322-8.149.249.495.437.865.564 1.111l1.693 3.519c1.002 2.101 2.004 3.148 3.009 3.148 1.002 0 1.504-.619 1.504-1.852v-1.296c-.376-3.58-.564-6.297-.564-8.149 0-2.715.25-7.408.753-14.075.123-1.728.188-2.778.188-3.148 0-2.345-.629-3.52-1.881-3.52ZM388.368 271.34c-2.509 0-3.761 1.144-3.761 3.424 0 .361.156.874.47 1.533.312.66.47 1.051.47 1.169 0 .362-.314.542-.94.542-3.888 0-6.207-3.809-6.959-11.431-1.129-11.184-3.668-18.928-7.617-23.231-3.95-4.3-11.191-7.006-21.724-8.114 9.781-.614 17.366-2.793 22.758-6.543 5.389-3.75 8.087-8.635 8.087-14.661 0-5.529-2.539-9.986-7.617-13.366-5.078-3.38-11.819-5.069-20.218-5.069H315.77c-1.757 0-2.633.434-2.633 1.296 0 .99 1.472 1.481 4.42 1.481 2.944 0 4.764.218 5.454.649.688.434 1.034 1.328 1.034 2.685v73.156c0 1.73-2.133 2.592-6.394 2.592h-2.633c-1.255 0-1.881.463-1.881 1.383 0 .808 1.754 1.21 5.266 1.21h30.281c1.754 0 2.633-.432 2.633-1.297 0-.862-.679-1.296-2.037-1.296-6.668 0-9.812-.862-9.436-2.592v-38.153c6.871.246 11.711 1.415 14.523 3.505 2.81 2.089 4.529 5.778 5.155 11.066.872 8.238 1.622 13.464 2.248 15.678.623 2.214 1.875 4.428 3.75 6.639 4.246 5.041 9.744 7.561 16.492 7.561 6.994 0 10.494-1.973 10.494-5.926 0-2.593-1.381-3.89-4.138-3.89Zm-48.524-37.596V203.53c0-2.086.341-3.406 1.025-3.959.683-.552 2.455-.83 5.317-.83 11.067 0 16.603 5.527 16.603 16.581 0 12.282-7.649 18.422-22.945 18.422Z" style="fill:none;stroke:#000;stroke-width:.93px"/><path d="M468.677 259.858c0 .123-.063.895-.188 2.315a43.403 43.403 0 0 0-.188 3.796l-.188 10.557c0 1.235.062 2.593.188 4.074l-31.221-.555-35.735.185c-2.633 0-3.95-.432-3.95-1.296 0-.988.752-1.482 2.257-1.482 4.012 0 6.363-.278 7.053-.833.69-.556 1.034-2.562 1.034-6.02V206.89c0-5.062-.438-7.748-1.316-8.056-.878-.309-3.072-.463-6.583-.463-1.505 0-2.257-.432-2.257-1.297 0-.987.815-1.481 2.445-1.481h8.276l2.069.185h4.701c.627 0 3.762-.062 9.404-.185h31.786c3.26 0 5.955-.124 8.087-.371v1.297l.188 2.778c.251 1.852.752 7.408 1.505 16.668.125.617.188 1.358.188 2.222 0 1.605-.439 2.408-1.317 2.408-1.128 0-1.943-1.235-2.445-3.704-1.755-9.384-5.078-14.878-9.968-16.483-2.758-.864-9.278-1.297-19.56-1.297h-9.592v34.633h4.514c8.024 0 12.977-.648 14.858-1.944 1.881-1.297 3.135-4.846 3.762-10.649.376-3.458 1.128-5.186 2.256-5.186 1.254 0 1.881 1.235 1.881 3.704 0 1.482-.094 3.766-.282 6.852-.188 3.087-.282 5.433-.282 7.038 0 8.025.188 13.52.564 16.483.126.988.188 1.79.188 2.408 0 1.975-.627 2.963-1.88 2.963-1.129 0-1.881-1.543-2.257-4.63-.753-6.667-2.007-10.649-3.762-11.946-1.755-1.296-6.708-1.944-14.858-1.944h-4.702v40.003c18.432-.123 29.277-.617 32.537-1.481 5.016-1.358 7.962-7.285 8.84-17.78.126-1.852.815-2.778 2.069-2.778s1.881 1.667 1.881 5.001Z" style="fill-rule:nonzero"/><path d="M466.796 254.858c-1.255 0-1.945.926-2.069 2.777-.875 10.496-3.808 16.423-8.798 17.78-3.248.865-14.045 1.36-32.391 1.482v-40.004h4.637c8.038 0 12.922.649 14.656 1.944 1.731 1.297 2.968 5.279 3.709 11.946.37 3.088 1.113 4.631 2.227 4.631 1.235 0 1.854-.988 1.854-2.964 0-.616-.047-1.418-.14-2.407-.283-2.964-.424-8.456-.424-16.484 0-1.602.094-3.95.282-7.037.188-3.085.282-5.371.282-6.852 0-2.469-.629-3.705-1.88-3.705-1.129 0-1.881 1.731-2.257 5.186-.624 5.805-1.866 9.353-3.732 10.649-1.867 1.296-6.777 1.945-14.735 1.945h-4.479v-34.633h9.551c10.235 0 16.727.433 19.472 1.296 4.869 1.606 8.178 7.101 9.927 16.483.496 2.472 1.308 3.704 2.433 3.704.873 0 1.311-.79 1.311-2.373 0-.85-.065-1.58-.188-2.19-.752-9.124-1.255-14.6-1.505-16.425l-.188-2.738v-1.276h-64.323c-1.63 0-2.445.494-2.445 1.482 0 .865.753 1.296 2.257 1.296 3.509 0 5.705.156 6.583.463.876.31 1.316 2.995 1.316 8.056v63.71c0 3.458-.346 5.463-1.034 6.019-.69.555-3.041.834-7.053.834-1.504 0-2.257.56-2.257 1.677 0 .979 1.323 1.471 3.97 1.471l35.926-.556 31.386.556c-.376-1.346-.564-2.582-.564-3.704v-10.736c0-1.129.094-2.416.282-3.861.188-1.444.282-2.228.282-2.355 0-3.392-.629-5.087-1.881-5.087Z" style="fill:none;stroke:#000;stroke-width:.93px"/><path d="M121.236 180.881h327.516v2.58H121.236z" style="stroke:#000;stroke-width:.88px"/><path d="M310.532 216.282c0 26.198-24.313 47.436-54.31 47.436-29.993 0-54.307-21.238-54.307-47.436 0-26.196 24.314-47.434 54.307-47.434 29.997 0 54.31 21.238 54.31 47.434" style="fill:#7f00b9;fill-rule:nonzero"/><path d="M310.532 216.283c0-26.18-24.335-47.435-54.309-47.435-29.973 0-54.308 21.255-54.308 47.435 0 26.181 24.335 47.435 54.308 47.435 29.974 0 54.309-21.254 54.309-47.435Z" style="fill:none;stroke:#7f00b9;stroke-width:.25px"/></svg>