<?xml version="1.0" encoding="UTF-8" standalone="no"?><!DOCTYPE svg PUBLIC "-//W3C//DTD SVG 1.1//EN" "http://www.w3.org/Graphics/SVG/1.1/DTD/svg11.dtd"><svg width="100%" height="100%" viewBox="0 0 498 309" version="1.1" xmlns="http://www.w3.org/2000/svg" xmlns:xlink="http://www.w3.org/1999/xlink" xml:space="preserve" xmlns:serif="http://www.serif.com/" style="fill-rule:evenodd;clip-rule:evenodd;stroke-miterlimit:10;"><g id="Layer-1" serif:id="Layer 1"><rect x="106.337" y="157.634" width="322.913" height="2.581" style="stroke:#000;stroke-width:0.87px;"/><g><path d="M174.076,19.861c0,0.988 -1.066,1.481 -3.197,1.481c-6.896,0.124 -11.159,1.297 -12.789,3.519c-1.505,1.358 -6.897,11.853 -16.175,31.485c-4.138,8.766 -8.025,16.483 -11.661,23.15c-2.508,4.568 -3.95,7.686 -4.326,9.353c-0.376,1.666 -0.564,5.278 -0.564,10.834l0,35.003c0,4.075 0.533,6.482 1.599,7.223c1.065,0.741 4.796,1.296 11.19,1.667c3.386,0.247 5.078,0.864 5.078,1.852c0,0.988 -0.877,1.481 -2.633,1.481l-2.257,0l-26.331,-0.555c-7.397,0 -13.479,0.123 -18.243,0.37c-0.753,0.124 -1.63,0.185 -2.633,0.185c-1.756,0 -2.633,-0.555 -2.633,-1.666c0,-1.112 1.441,-1.729 4.325,-1.852c6.897,-0.247 10.972,-0.865 12.225,-1.852c1.254,-0.988 1.881,-3.951 1.881,-8.89l0,-39.078c-1.254,-2.716 -4.89,-9.939 -10.908,-21.668l-18.808,-36.67c-1.881,-3.581 -4.138,-7.594 -6.771,-12.039c-1.379,-1.234 -4.357,-1.852 -8.934,-1.852c-4.576,0 -6.865,-0.679 -6.865,-2.037c0,-0.988 1.004,-1.481 3.01,-1.481c2.633,0 7.899,0.123 15.798,0.37c4.514,0.123 7.774,0.185 9.78,0.185l21.817,-0.185c0.878,-0.124 1.881,-0.185 3.01,-0.185c2.257,0 3.385,0.617 3.385,1.852c0,1.111 -2.131,1.667 -6.395,1.667c-7.773,0 -11.66,1.358 -11.66,4.074c0,2.099 3.949,10.557 11.849,25.373l17.115,32.04c3.134,-5.556 6.708,-12.409 10.72,-20.558l11.097,-22.039c4.137,-7.902 6.206,-13.087 6.206,-15.557c0,-1.605 -1.065,-2.531 -3.197,-2.778c-4.389,-0.617 -7.335,-0.864 -8.84,-0.741c-2.758,0.124 -4.137,-0.493 -4.137,-1.852c0,-0.987 1.191,-1.481 3.573,-1.481l10.909,0.185l6.206,-0.185c12.79,-0.371 19.184,0.247 19.184,1.852Z" style="fill-rule:nonzero;"/><path d="M341.151,64.124c0,0.864 -1.003,1.296 -3.009,1.296l-0.94,0c-1.254,-0.123 -2.508,-0.185 -3.762,-0.185c-2.006,0 -3.009,1.235 -3.009,3.704l0,34.263c0,11.976 -0.251,19.693 -0.752,23.15c-0.502,3.457 -1.819,6.914 -3.95,10.371c-4.89,7.779 -13.542,11.668 -25.955,11.668c-10.281,0 -18.494,-2.346 -24.638,-7.038c-5.642,-4.321 -8.464,-12.655 -8.464,-25.002l0,-39.078c0,-6.667 -0.219,-10.309 -0.658,-10.927c-0.439,-0.617 -2.288,-0.926 -5.548,-0.926c-2.633,0 -3.95,-0.493 -3.95,-1.481c0,-0.864 0.878,-1.297 2.633,-1.297l5.831,0c1.253,0.124 2.194,0.186 2.821,0.186l15.798,0c0.878,0 1.944,-0.062 3.198,-0.186c1.128,0 1.818,0 2.069,0c2.257,0 3.385,0.494 3.385,1.482c0,1.235 -2.32,1.79 -6.959,1.667c-1.379,0 -2.194,0.216 -2.445,0.648c-0.251,0.432 -0.376,1.821 -0.376,4.167l0,44.449c0,12.1 1.567,19.94 4.702,23.52c3.511,4.075 8.714,6.112 15.61,6.112c9.655,0 16.238,-3.951 19.749,-11.853c1.755,-3.951 2.633,-10.31 2.633,-19.076c0,0.124 0,-0.555 0,-2.037c-0.126,-1.358 -0.188,-2.778 -0.188,-4.26l0,-38.522c0,-1.605 -0.314,-2.593 -0.941,-2.963c-0.627,-0.37 -2.351,-0.556 -5.172,-0.556c-2.821,0 -4.232,-0.555 -4.232,-1.666c0,-0.865 0.753,-1.297 2.257,-1.297c0.627,0 1.254,0.062 1.881,0.185l8.652,0.186c0.125,0 0.815,0 2.068,0c1.38,-0.124 3.386,-0.186 6.019,-0.186l2.633,0c2.006,0 3.009,0.494 3.009,1.482Z" style="fill-rule:nonzero;"/><path d="M426.844,142.465c0,3.951 -3.511,5.926 -10.533,5.926c-6.771,0 -12.288,-2.531 -16.551,-7.593c-1.881,-2.223 -3.134,-4.445 -3.761,-6.668c-0.627,-2.222 -1.38,-7.469 -2.257,-15.742c-0.627,-5.309 -2.351,-9.013 -5.172,-11.112c-2.822,-2.099 -7.68,-3.272 -14.576,-3.519l0,38.152c-0.377,1.728 2.821,2.593 9.592,2.593c1.379,0 2.068,0.432 2.068,1.296c0,0.864 -0.877,1.297 -2.633,1.297c-1.379,0 -2.695,-0.062 -3.949,-0.186l-6.583,0c-2.759,0 -6.081,0.062 -9.968,0.186c-3.762,0 -5.831,0 -6.207,0l-3.573,0c-3.511,0 -5.266,-0.433 -5.266,-1.297c0,-0.988 0.626,-1.481 1.88,-1.481c0.376,0 1.003,0.061 1.881,0.185l0.752,0c4.264,0 6.395,-0.865 6.395,-2.593l0,-73.155c0,-1.358 -0.345,-2.253 -1.034,-2.685c-0.69,-0.432 -2.508,-0.649 -5.455,-0.649c-2.946,0 -4.419,-0.493 -4.419,-1.481c0,-0.864 0.877,-1.297 2.633,-1.297l1.316,0c2.006,0.247 7.962,0.371 17.868,0.371c4.137,0 7.523,-0.062 10.156,-0.185c2.633,-0.124 4.702,-0.186 6.206,-0.186c8.401,0 15.141,1.698 20.219,5.094c5.078,3.395 7.617,7.871 7.617,13.427c0,6.05 -2.696,10.957 -8.087,14.723c-5.392,3.766 -12.978,5.958 -22.758,6.575c10.533,1.111 17.774,3.827 21.723,8.149c3.95,4.321 6.489,12.1 7.617,23.335c0.753,7.655 3.072,11.483 6.959,11.483c0.627,0 0.941,-0.185 0.941,-0.556c0,-0.123 -0.157,-0.525 -0.471,-1.204c-0.313,-0.679 -0.47,-1.203 -0.47,-1.574c0,-2.346 1.254,-3.519 3.762,-3.519c2.758,0 4.138,1.297 4.138,3.89Zm-29.717,-60.191c0,-11.112 -5.579,-16.668 -16.739,-16.668c-2.884,0 -4.67,0.277 -5.36,0.833c-0.69,0.556 -1.034,1.883 -1.034,3.982l0,30.373c15.422,0 23.133,-6.173 23.133,-18.52Z" style="fill-rule:nonzero;"/></g><path d="M155.08,17.823l-6.207,0l-10.908,0c-2.383,0 -3.573,0.501 -3.573,1.496c0,1.372 1.378,1.997 4.137,1.869c1.505,-0.121 4.449,0.128 8.84,0.75c2.13,0.249 3.197,1.187 3.197,2.807c0,2.494 -2.042,7.729 -6.127,15.711l-11.103,22.039c-4.02,8.142 -7.599,14.989 -10.737,20.54l-17.186,-32.052c-7.891,-14.903 -11.834,-23.411 -11.834,-25.523c0,-2.732 3.885,-4.098 11.66,-4.098c4.261,0 6.395,-0.559 6.395,-1.676c0,-1.241 -1.128,-1.863 -3.386,-1.863c-1.128,0 -2.133,0.093 -3.009,0.278l-21.817,0.278c-2.007,0 -5.266,-0.061 -9.78,-0.186c-7.899,-0.246 -13.165,-0.37 -15.798,-0.37c-2.005,0 -3.01,0.495 -3.01,1.481c0,1.361 2.289,2.038 6.865,2.038c4.576,0 7.553,0.619 8.934,1.852c2.633,4.444 4.89,8.458 6.771,12.038l18.808,36.67c6.018,11.732 9.653,18.954 10.908,21.669l0,38.933c0,4.92 -0.629,7.871 -1.881,8.855c-1.254,0.984 -5.33,1.6 -12.225,1.846c-2.886,0.13 -4.326,0.781 -4.326,1.95c0,1.169 0.876,1.755 2.634,1.755c1.002,0 1.881,-0.061 2.633,-0.186c4.763,-0.246 10.844,-0.37 18.243,-0.37l26.331,0.556l2.257,0c1.754,0 2.633,-0.466 2.633,-1.401c0,-0.931 -1.693,-1.514 -5.078,-1.748c-6.394,-0.37 -10.127,-0.928 -11.191,-1.673c-1.066,-0.74 -1.598,-3.157 -1.598,-7.243l0,-35.104c0,-5.57 0.188,-9.191 0.564,-10.864c0.376,-1.672 1.816,-4.797 4.326,-9.382c3.635,-6.666 7.523,-14.381 11.661,-23.149c9.277,-19.84 14.67,-30.447 16.174,-31.817c1.629,-2.246 5.893,-3.43 12.79,-3.557c2.13,0 3.197,-0.465 3.197,-1.4c0,-1.534 -6.394,-2.119 -19.184,-1.748Z" style="fill:none;stroke:#000;stroke-width:0.93px;"/><path d="M338.452,62.643l-2.633,0l-6.019,0l-2.069,0l-8.651,0l-1.881,0c-1.505,0 -2.257,0.431 -2.257,1.29c0,1.106 1.434,1.658 4.308,1.658c2.871,0 4.626,0.186 5.266,0.556c0.638,0.37 0.958,1.351 0.958,2.949l0,44.616c0,8.728 -0.878,15.059 -2.633,18.99c-3.512,7.868 -10.094,11.8 -19.748,11.8c-6.897,0 -12.101,-2.032 -15.61,-6.097c-3.136,-3.572 -4.702,-11.393 -4.702,-23.466l0,-44.344c0,-2.339 0.123,-3.724 0.376,-4.156c0.25,-0.431 1.064,-0.648 2.445,-0.648c4.637,0.124 6.959,-0.431 6.959,-1.667c0,-0.987 -1.129,-1.481 -3.386,-1.481l-2.069,0l-3.197,0l-15.798,0l-2.822,0l-3.197,0l-2.633,0c-1.757,0 -2.633,0.431 -2.633,1.293c0,0.987 1.316,1.478 3.949,1.478c3.26,0 5.108,0.31 5.549,0.927c0.438,0.616 0.658,4.251 0.658,10.901l0,38.994c0,12.321 2.821,20.636 8.464,24.947c6.141,4.682 14.355,7.023 24.638,7.023c12.413,0 21.065,-3.872 25.954,-11.616c2.131,-3.44 3.448,-6.881 3.95,-10.325c0.5,-3.44 0.753,-11.123 0.753,-23.046l0,-34.112c0,-2.456 1.002,-3.687 3.009,-3.687l4.702,0c2.004,0 3.009,-0.43 3.009,-1.296c0,-0.987 -1.005,-1.481 -3.009,-1.481Z" style="fill:none;stroke:#000;stroke-width:0.93px;"/><path d="M422.708,138.39c-2.509,0 -3.761,1.144 -3.761,3.424c0,0.361 0.156,0.874 0.47,1.533c0.312,0.66 0.47,1.051 0.47,1.169c0,0.362 -0.314,0.542 -0.94,0.542c-3.888,0 -6.207,-3.809 -6.959,-11.431c-1.129,-11.184 -3.668,-18.928 -7.617,-23.231c-3.95,-4.3 -11.191,-7.006 -21.724,-8.114c9.781,-0.614 17.366,-2.793 22.758,-6.543c5.389,-3.75 8.087,-8.635 8.087,-14.661c0,-5.529 -2.539,-9.986 -7.617,-13.366c-5.078,-3.38 -11.819,-5.069 -20.218,-5.069l-6.207,0l-10.156,0l-17.867,0l-1.317,0c-1.757,0 -2.633,0.434 -2.633,1.296c0,0.99 1.472,1.481 4.42,1.481c2.944,0 4.764,0.218 5.454,0.649c0.688,0.434 1.034,1.328 1.034,2.685l0,73.156c0,1.73 -2.133,2.592 -6.394,2.592l-0.753,0l-1.88,0c-1.255,0 -1.881,0.463 -1.881,1.383c0,0.808 1.754,1.21 5.266,1.21l30.281,0c1.754,0 2.633,-0.432 2.633,-1.297c0,-0.862 -0.679,-1.296 -2.037,-1.296c-6.668,0 -9.812,-0.862 -9.436,-2.592l0,-38.153c6.871,0.246 11.711,1.415 14.523,3.505c2.81,2.089 4.529,5.778 5.155,11.066c0.872,8.238 1.622,13.464 2.248,15.678c0.623,2.214 1.875,4.428 3.75,6.639c4.246,5.041 9.744,7.561 16.492,7.561c6.994,0 10.494,-1.973 10.494,-5.926c0,-2.593 -1.381,-3.89 -4.138,-3.89Zm-48.524,-37.596l0,-30.214c0,-2.086 0.341,-3.406 1.025,-3.959c0.683,-0.552 2.455,-0.83 5.317,-0.83c11.067,0 16.603,5.527 16.603,16.581c0,12.282 -7.649,18.422 -22.945,18.422Z" style="fill:none;stroke:#000;stroke-width:0.93px;"/><path d="M259.039,125.191c0,26.196 -24.314,47.433 -54.31,47.433c-29.994,0 -54.307,-21.237 -54.307,-47.433c0,-26.197 24.313,-47.435 54.307,-47.435c29.996,0 54.31,21.238 54.31,47.435" style="fill:#00a99d;fill-rule:nonzero;"/><path d="M259.039,125.19c0,-26.18 -24.335,-47.434 -54.308,-47.434c-29.974,0 -54.309,21.254 -54.309,47.434c0,26.179 24.335,47.434 54.309,47.434c29.973,0 54.308,-21.255 54.308,-47.434Z" style="fill:none;stroke:#00a99d;stroke-width:0.93px;"/><g><path d="M101.935,243.745c0,10.618 -4.106,19.662 -12.319,27.132c-8.213,7.47 -18.087,11.205 -29.622,11.205c-6.771,0 -14.858,-2.037 -24.262,-6.112c-2.508,-1.111 -4.389,-1.666 -5.643,-1.666c-1.504,0 -2.445,1.79 -2.821,5.37c-0.125,1.852 -0.94,2.778 -2.445,2.778c-1.254,0 -1.881,-0.74 -1.881,-2.222c0,-0.988 0.063,-1.729 0.189,-2.222c1.003,-7.532 1.504,-14.508 1.504,-20.928c0,-1.235 -0.125,-4.692 -0.376,-10.372c-0.125,-0.74 -0.188,-1.728 -0.188,-2.963c0,-1.852 0.752,-2.778 2.257,-2.778c1.254,0 2.131,1.482 2.633,4.445c3.26,21.977 13.855,32.966 31.785,32.966c7.649,0 13.573,-2.13 17.774,-6.389c4.2,-4.26 6.3,-10.279 6.3,-18.058c0,-6.914 -2.037,-12.81 -6.112,-17.686c-4.075,-4.877 -11.066,-9.724 -20.971,-14.539c-11.912,-5.803 -20.187,-11.421 -24.826,-16.853c-4.64,-5.433 -6.959,-12.162 -6.959,-20.187c0,-10.248 3.354,-18.706 10.062,-25.373c6.708,-6.667 15.203,-10.001 25.484,-10.001c4.264,0 10.157,1.42 17.68,4.26c2.633,0.988 4.576,1.481 5.83,1.481c1.38,0 2.289,-0.247 2.727,-0.74c0.439,-0.494 0.847,-1.791 1.223,-3.89c0.251,-1.234 0.94,-1.852 2.069,-1.852c1.254,0 1.881,0.741 1.881,2.223c0,0.987 -0.063,1.728 -0.189,2.222c-0.376,2.963 -0.564,6.544 -0.564,10.742c0,5.926 0.314,10.618 0.941,14.075l0.188,2.963c0.125,1.359 -0.439,2.038 -1.693,2.038c-1.379,0 -2.32,-1.42 -2.821,-4.26c-1.379,-7.285 -4.639,-13.365 -9.78,-18.242c-5.141,-4.877 -10.909,-7.316 -17.303,-7.316c-6.27,0 -11.254,1.976 -14.953,5.927c-3.699,3.951 -5.548,9.321 -5.548,16.112c0,7.902 2.696,14.261 8.087,19.076c3.01,2.716 9.53,6.544 19.561,11.483c11.786,5.803 20.249,11.698 25.39,17.686c5.141,5.989 7.711,12.81 7.711,20.465Z" style="fill-rule:nonzero;"/><path d="M192.487,252.264c0,0.371 -0.063,1.42 -0.188,3.149c-0.502,6.667 -0.752,11.359 -0.752,14.075c0,1.852 0.188,4.569 0.564,8.149l0,1.297c0,1.234 -0.502,1.852 -1.505,1.852c-1.003,0 -2.006,-1.05 -3.009,-3.149l-1.693,-3.519c-0.125,-0.247 -0.313,-0.617 -0.564,-1.111c-5.642,5.556 -13.416,8.334 -23.322,8.334c-12.664,0 -23.196,-4.167 -31.597,-12.501c-8.401,-8.334 -12.601,-18.798 -12.601,-31.392c0,-12.593 3.887,-22.934 11.661,-31.021c7.774,-8.087 17.679,-12.131 29.716,-12.131c9.404,0 17.303,2.408 23.698,7.223c0.502,0.494 1.003,0.741 1.505,0.741c0.627,0 1.191,-0.803 1.692,-2.408c0.878,-2.716 1.944,-4.074 3.198,-4.074c0.877,0 1.316,0.494 1.316,1.481c0,0.124 -0.125,0.68 -0.376,1.667c-0.752,4.198 -1.191,10.433 -1.316,18.706c-0.126,5.185 -0.815,7.778 -2.069,7.778c-1.003,0 -1.693,-0.926 -2.069,-2.778c-1.254,-6.667 -2.759,-11.606 -4.514,-14.816c-4.012,-7.038 -10.595,-10.557 -19.748,-10.557c-7.649,0 -13.73,3.643 -18.244,10.927c-4.514,7.285 -6.771,17.162 -6.771,29.633c0,12.47 2.508,22.347 7.523,29.632c5.016,7.285 11.787,10.927 20.313,10.927c6.52,0 11.943,-2.192 16.269,-6.575c4.325,-4.383 7.178,-10.464 8.557,-18.242c0.627,-3.21 1.442,-4.815 2.445,-4.815c1.254,0 1.881,1.173 1.881,3.518Z" style="fill-rule:nonzero;"/><path d="M392.514,275.415c0,3.951 -3.511,5.926 -10.533,5.926c-6.771,0 -12.288,-2.531 -16.551,-7.593c-1.88,-2.222 -3.134,-4.445 -3.761,-6.667c-0.627,-2.223 -1.38,-7.47 -2.257,-15.743c-0.627,-5.309 -2.351,-9.013 -5.172,-11.112c-2.822,-2.099 -7.68,-3.272 -14.576,-3.518l0,38.151c-0.377,1.729 2.821,2.593 9.592,2.593c1.379,0 2.068,0.432 2.068,1.296c0,0.865 -0.877,1.297 -2.633,1.297c-1.379,0 -2.695,-0.062 -3.949,-0.185l-6.583,0c-2.759,0 -6.081,0.061 -9.968,0.185c-3.762,0 -5.831,0 -6.207,0l-3.573,0c-3.511,0 -5.266,-0.432 -5.266,-1.297c0,-0.987 0.626,-1.481 1.88,-1.481c0.376,0 1.003,0.062 1.881,0.185l0.752,0c4.264,0 6.395,-0.864 6.395,-2.593l0,-73.155c0,-1.358 -0.345,-2.253 -1.034,-2.685c-0.69,-0.432 -2.508,-0.648 -5.455,-0.648c-2.946,0 -4.419,-0.494 -4.419,-1.482c0,-0.864 0.877,-1.296 2.633,-1.296l1.316,0c2.006,0.247 7.962,0.37 17.868,0.37c4.137,0 7.523,-0.062 10.156,-0.185c2.633,-0.124 4.702,-0.185 6.206,-0.185c8.401,0 15.141,1.697 20.219,5.093c5.078,3.395 7.617,7.871 7.617,13.427c0,6.05 -2.696,10.958 -8.087,14.723c-5.392,3.766 -12.978,5.958 -22.758,6.575c10.533,1.111 17.774,3.828 21.723,8.149c3.95,4.321 6.489,12.1 7.617,23.335c0.753,7.655 3.072,11.483 6.959,11.483c0.627,0 0.941,-0.185 0.941,-0.556c0,-0.123 -0.157,-0.524 -0.471,-1.203c-0.313,-0.68 -0.47,-1.204 -0.47,-1.575c0,-2.346 1.254,-3.518 3.762,-3.518c2.758,0 4.138,1.296 4.138,3.889Zm-29.717,-60.191c0,-11.112 -5.579,-16.668 -16.739,-16.668c-2.884,0 -4.67,0.278 -5.36,0.833c-0.69,0.556 -1.034,1.883 -1.034,3.982l0,30.373c15.422,0 23.133,-6.173 23.133,-18.52Z" style="fill-rule:nonzero;"/></g><path d="M94.224,223.28c-5.143,-5.987 -13.606,-11.882 -25.391,-17.687c-10.032,-4.937 -16.55,-8.765 -19.56,-11.483c-5.392,-4.814 -8.087,-11.173 -8.087,-19.075c0,-6.789 1.849,-12.16 5.548,-16.112c3.697,-3.951 8.681,-5.927 14.952,-5.927c6.395,0 12.161,2.439 17.304,7.315c5.139,4.879 8.399,10.959 9.78,18.242c0.499,2.842 1.44,4.26 2.821,4.26c1.252,0 1.816,-0.677 1.693,-2.037l-0.188,-2.963c-0.629,-3.456 -0.941,-8.149 -0.941,-14.076c0,-4.195 0.188,-7.778 0.564,-10.741c0.124,-0.492 0.189,-1.234 0.189,-2.223c0,-1.481 -0.629,-2.222 -1.881,-2.222c-1.129,0 -1.82,0.619 -2.069,1.852c-0.377,2.101 -0.785,3.398 -1.223,3.889c-0.441,0.495 -1.348,0.741 -2.727,0.741c-1.255,0 -3.197,-0.492 -5.83,-1.482c-7.523,-2.838 -13.418,-4.259 -17.68,-4.259c-10.282,0 -18.778,3.334 -25.484,10.001c-6.709,6.667 -10.062,15.126 -10.062,25.372c0,8.027 2.318,14.756 6.959,20.188c4.637,5.434 12.912,11.052 24.826,16.853c9.904,4.815 16.895,9.662 20.97,14.538c4.074,4.879 6.113,10.773 6.113,17.686c0,7.78 -2.101,13.798 -6.301,18.058c-4.202,4.26 -10.127,6.39 -17.773,6.39c-17.932,0 -28.526,-11.098 -31.785,-33.293c-0.503,-2.993 -1.382,-4.489 -2.633,-4.489c-1.505,0 -2.257,0.926 -2.257,2.779c0,1.235 0.062,2.221 0.188,2.963c0.25,5.68 0.376,9.138 0.376,10.371c0,6.423 -0.502,13.399 -1.505,20.928c-0.126,0.495 -0.188,1.236 -0.188,2.222c0,1.483 0.626,2.224 1.881,2.224c1.505,0 2.318,-0.886 2.445,-2.652c0.376,-3.417 1.317,-5.127 2.821,-5.127c1.252,0 3.133,0.555 5.643,1.666c9.404,4.076 17.491,6.113 24.262,6.113c11.534,0 21.408,-3.734 29.622,-11.205c8.211,-7.469 12.319,-16.512 12.319,-27.132c0,-7.654 -2.571,-14.475 -7.711,-20.465Z" style="fill:none;stroke:#000;stroke-width:0.93px;"/><path d="M190.706,248.745c-1.005,0 -1.819,1.586 -2.445,4.755c-1.381,7.683 -4.232,13.687 -8.557,18.016c-4.327,4.33 -9.751,6.492 -16.269,6.492c-8.529,0 -15.299,-3.618 -20.313,-10.853c-5.016,-7.234 -7.523,-17.044 -7.523,-29.43c0,-12.384 2.257,-22.195 6.771,-29.429c4.514,-7.235 10.594,-10.852 18.243,-10.852c9.152,0 15.734,3.496 19.749,10.488c1.754,3.188 3.259,8.096 4.513,14.717c0.377,1.84 1.064,2.761 2.069,2.761c1.252,0 1.943,-2.593 2.069,-7.778c0.124,-8.271 0.565,-14.507 1.317,-18.706c0.25,-0.987 0.376,-1.542 0.376,-1.667c0,-0.987 -0.441,-1.482 -1.316,-1.482c-1.255,0 -2.322,1.361 -3.198,4.075c-0.503,1.606 -1.067,2.408 -1.693,2.408c-0.502,0 -1.005,-0.246 -1.504,-0.742c-6.395,-4.814 -14.294,-7.222 -23.698,-7.222c-12.037,0 -21.944,4.037 -29.716,12.104c-7.776,8.072 -11.661,18.391 -11.661,30.955c0,12.568 4.199,23.009 12.601,31.326c8.399,8.316 18.931,12.475 31.597,12.475c9.903,0 17.679,-2.715 23.322,-8.149c0.249,0.495 0.437,0.865 0.564,1.111l1.693,3.519c1.002,2.101 2.004,3.148 3.009,3.148c1.002,0 1.504,-0.619 1.504,-1.852l0,-1.296c-0.376,-3.58 -0.564,-6.297 -0.564,-8.149c0,-2.715 0.25,-7.408 0.753,-14.075c0.123,-1.728 0.188,-2.778 0.188,-3.148c0,-2.345 -0.629,-3.52 -1.881,-3.52Z" style="fill:none;stroke:#000;stroke-width:0.93px;"/><path d="M388.368,271.34c-2.509,0 -3.761,1.144 -3.761,3.424c0,0.361 0.156,0.874 0.47,1.533c0.312,0.66 0.47,1.051 0.47,1.169c0,0.362 -0.314,0.542 -0.94,0.542c-3.888,0 -6.207,-3.809 -6.959,-11.431c-1.129,-11.184 -3.668,-18.928 -7.617,-23.231c-3.95,-4.3 -11.191,-7.006 -21.724,-8.114c9.781,-0.614 17.366,-2.793 22.758,-6.543c5.389,-3.75 8.087,-8.635 8.087,-14.661c0,-5.529 -2.539,-9.986 -7.617,-13.366c-5.078,-3.38 -11.819,-5.069 -20.218,-5.069l-6.207,0l-10.156,0l-17.867,0l-1.317,0c-1.757,0 -2.633,0.434 -2.633,1.296c0,0.99 1.472,1.481 4.42,1.481c2.944,0 4.764,0.218 5.454,0.649c0.688,0.434 1.034,1.328 1.034,2.685l0,73.156c0,1.73 -2.133,2.592 -6.394,2.592l-0.753,0l-1.88,0c-1.255,0 -1.881,0.463 -1.881,1.383c0,0.808 1.754,1.21 5.266,1.21l30.281,0c1.754,0 2.633,-0.432 2.633,-1.297c0,-0.862 -0.679,-1.296 -2.037,-1.296c-6.668,0 -9.812,-0.862 -9.436,-2.592l0,-38.153c6.871,0.246 11.711,1.415 14.523,3.505c2.81,2.089 4.529,5.778 5.155,11.066c0.872,8.238 1.622,13.464 2.248,15.678c0.623,2.214 1.875,4.428 3.75,6.639c4.246,5.041 9.744,7.561 16.492,7.561c6.994,0 10.494,-1.973 10.494,-5.926c0,-2.593 -1.381,-3.89 -4.138,-3.89Zm-48.524,-37.596l0,-30.214c0,-2.086 0.341,-3.406 1.025,-3.959c0.683,-0.552 2.455,-0.83 5.317,-0.83c11.067,0 16.603,5.527 16.603,16.581c0,12.282 -7.649,18.422 -22.945,18.422Z" style="fill:none;stroke:#000;stroke-width:0.93px;"/><path d="M468.677,259.858c0,0.123 -0.063,0.895 -0.188,2.315c-0.126,1.42 -0.188,2.685 -0.188,3.796l-0.188,10.557c0,1.235 0.062,2.593 0.188,4.074l-31.221,-0.555l-35.735,0.185c-2.633,0 -3.95,-0.432 -3.95,-1.296c0,-0.988 0.752,-1.482 2.257,-1.482c4.012,0 6.363,-0.278 7.053,-0.833c0.69,-0.556 1.034,-2.562 1.034,-6.02l0,-63.709c0,-5.062 -0.438,-7.748 -1.316,-8.056c-0.878,-0.309 -3.072,-0.463 -6.583,-0.463c-1.505,0 -2.257,-0.432 -2.257,-1.297c0,-0.987 0.815,-1.481 2.445,-1.481l8.276,0c1.379,0.123 2.069,0.185 2.069,0.185l4.701,0c0.627,0 3.762,-0.062 9.404,-0.185l31.786,0c3.26,0 5.955,-0.124 8.087,-0.371l0,1.297l0.188,2.778c0.251,1.852 0.752,7.408 1.505,16.668c0.125,0.617 0.188,1.358 0.188,2.222c0,1.605 -0.439,2.408 -1.317,2.408c-1.128,0 -1.943,-1.235 -2.445,-3.704c-1.755,-9.384 -5.078,-14.878 -9.968,-16.483c-2.758,-0.864 -9.278,-1.297 -19.56,-1.297l-9.592,0l0,34.633l4.514,0c8.024,0 12.977,-0.648 14.858,-1.944c1.881,-1.297 3.135,-4.846 3.762,-10.649c0.376,-3.458 1.128,-5.186 2.256,-5.186c1.254,0 1.881,1.235 1.881,3.704c0,1.482 -0.094,3.766 -0.282,6.852c-0.188,3.087 -0.282,5.433 -0.282,7.038c0,8.025 0.188,13.52 0.564,16.483c0.126,0.988 0.188,1.79 0.188,2.408c0,1.975 -0.627,2.963 -1.88,2.963c-1.129,0 -1.881,-1.543 -2.257,-4.63c-0.753,-6.667 -2.007,-10.649 -3.762,-11.946c-1.755,-1.296 -6.708,-1.944 -14.858,-1.944l-4.702,0l0,40.003c18.432,-0.123 29.277,-0.617 32.537,-1.481c5.016,-1.358 7.962,-7.285 8.84,-17.78c0.126,-1.852 0.815,-2.778 2.069,-2.778c1.254,0 1.881,1.667 1.881,5.001Z" style="fill-rule:nonzero;"/><path d="M466.796,254.858c-1.255,0 -1.945,0.926 -2.069,2.777c-0.875,10.496 -3.808,16.423 -8.798,17.78c-3.248,0.865 -14.045,1.36 -32.391,1.482l0,-40.004l4.637,0c8.038,0 12.922,0.649 14.656,1.944c1.731,1.297 2.968,5.279 3.709,11.946c0.37,3.088 1.113,4.631 2.227,4.631c1.235,0 1.854,-0.988 1.854,-2.964c0,-0.616 -0.047,-1.418 -0.14,-2.407c-0.283,-2.964 -0.424,-8.456 -0.424,-16.484c0,-1.602 0.094,-3.95 0.282,-7.037c0.188,-3.085 0.282,-5.371 0.282,-6.852c0,-2.469 -0.629,-3.705 -1.88,-3.705c-1.129,0 -1.881,1.731 -2.257,5.186c-0.624,5.805 -1.866,9.353 -3.732,10.649c-1.867,1.296 -6.777,1.945 -14.735,1.945l-4.479,0l0,-34.633l9.551,0c10.235,0 16.727,0.433 19.472,1.296c4.869,1.606 8.178,7.101 9.927,16.483c0.496,2.472 1.308,3.704 2.433,3.704c0.873,0 1.311,-0.79 1.311,-2.373c0,-0.85 -0.065,-1.58 -0.188,-2.19c-0.752,-9.124 -1.255,-14.6 -1.505,-16.425l-0.188,-2.738l0,-1.276l-8.087,0l-11.097,0l-20.688,0l-9.404,0l-4.702,0l-2.069,0l-3.762,0l-4.514,0c-1.63,0 -2.445,0.494 -2.445,1.482c0,0.865 0.753,1.296 2.257,1.296c3.509,0 5.705,0.156 6.583,0.463c0.876,0.31 1.316,2.995 1.316,8.056l0,63.71c0,3.458 -0.346,5.463 -1.034,6.019c-0.69,0.555 -3.041,0.834 -7.053,0.834c-1.504,0 -2.257,0.56 -2.257,1.677c0,0.979 1.323,1.471 3.97,1.471l35.926,-0.556l31.386,0.556c-0.376,-1.346 -0.564,-2.582 -0.564,-3.704l0,-10.736c0,-1.129 0.094,-2.416 0.282,-3.861c0.188,-1.444 0.282,-2.228 0.282,-2.355c0,-3.392 -0.629,-5.087 -1.881,-5.087Z" style="fill:none;stroke:#000;stroke-width:0.93px;"/><rect x="121.236" y="180.881" width="327.516" height="2.58" style="stroke:#000;stroke-width:0.88px;"/><path d="M310.532,216.282c0,26.198 -24.313,47.436 -54.31,47.436c-29.993,0 -54.307,-21.238 -54.307,-47.436c0,-26.196 24.314,-47.434 54.307,-47.434c29.997,0 54.31,21.238 54.31,47.434" style="fill:#7f00b9;fill-rule:nonzero;"/><path d="M310.532,216.283c0,-26.18 -24.335,-47.435 -54.309,-47.435c-29.973,0 -54.308,21.255 -54.308,47.435c0,26.181 24.335,47.435 54.308,47.435c29.974,0 54.309,-21.254 54.309,-47.435Z" style="fill:none;stroke:#7f00b9;stroke-width:0.25px;"/></g></svg>