<svg xmlns="http://www.w3.org/2000/svg" xml:space="preserve" style="fill-rule:evenodd;clip-rule:evenodd;stroke-miterlimit:10" viewBox="0 0 378 111"><path d="M0 0h377.675v110.35H0z" style="fill:none"/><path d="M72.071 13.358c0 .426-.452.638-1.356.638-2.925.053-4.732.559-5.424 1.516-.638.585-2.924 5.104-6.859 13.558-1.754 3.776-3.403 7.099-4.945 9.97-1.063 1.967-1.675 3.31-1.834 4.028-.16.718-.239 2.273-.239 4.666v15.074c0 1.754.226 2.791.678 3.11.451.319 2.033.559 4.745.718 1.436.106 2.154.372 2.154.798 0 .425-.373.638-1.117.638h-.957l-11.166-.24c-3.137 0-5.716.054-7.737.16-.319.053-.691.08-1.116.08-.745 0-1.117-.24-1.117-.718 0-.479.612-.745 1.835-.798 2.924-.106 4.652-.372 5.184-.797.532-.426.797-1.702.797-3.829V45.102c-.531-1.17-2.073-4.281-4.626-9.332l-7.975-15.792a119.072 119.072 0 0 0-2.871-5.184c-.585-.532-1.848-.798-3.789-.798s-2.911-.292-2.911-.877c0-.425.425-.638 1.276-.638 1.117 0 3.35.053 6.7.159 1.914.054 3.296.08 4.147.08l9.252-.08a9.132 9.132 0 0 1 1.276-.079c.957 0 1.436.266 1.436.797 0 .479-.904.718-2.712.718-3.297 0-4.945.585-4.945 1.755 0 .904 1.675 4.546 5.025 10.926l7.257 13.798c1.33-2.392 2.845-5.343 4.547-8.853l4.705-9.491c1.755-3.403 2.632-5.636 2.632-6.699 0-.692-.452-1.09-1.356-1.197-1.861-.266-3.11-.372-3.748-.319-1.17.053-1.755-.212-1.755-.797 0-.426.505-.638 1.516-.638l4.625.079 2.632-.079c5.424-.16 8.136.106 8.136.797ZM143.034 32.42c0 .372-.425.559-1.276.559h-.399a15.759 15.759 0 0 0-1.595-.08c-.851 0-1.276.531-1.276 1.595v14.755c0 5.158-.106 8.481-.319 9.97-.213 1.488-.771 2.977-1.675 4.466-2.074 3.35-5.742 5.025-11.006 5.025-4.36 0-7.843-1.011-10.449-3.031-2.392-1.861-3.589-5.45-3.589-10.767V38.083c0-2.871-.093-4.44-.279-4.706-.186-.266-.97-.398-2.353-.398-1.116 0-1.674-.213-1.674-.639 0-.372.372-.558 1.116-.558h2.473c.531.053.93.08 1.196.08h6.7c.372 0 .824-.027 1.355-.08h.878c.957 0 1.435.213 1.435.638 0 .532-.983.771-2.951.718-.585 0-.93.093-1.036.279-.107.186-.16.784-.16 1.795v19.141c0 5.211.665 8.588 1.994 10.13 1.489 1.754 3.695 2.632 6.62 2.632 4.094 0 6.885-1.702 8.374-5.105.745-1.701 1.117-4.44 1.117-8.215v-.877a20.352 20.352 0 0 1-.08-1.835V34.494c0-.691-.133-1.117-.399-1.276-.266-.16-.997-.239-2.193-.239-1.196 0-1.795-.24-1.795-.718 0-.372.32-.559.958-.559.265 0 .531.027.797.08l3.669.08h.877c.585-.053 1.436-.08 2.553-.08h1.116c.851 0 1.276.213 1.276.638ZM179.244 66.158c0 1.701-1.489 2.552-4.466 2.552-2.872 0-5.211-1.09-7.019-3.27-.798-.957-1.329-1.914-1.595-2.872-.266-.957-.585-3.216-.957-6.779-.266-2.286-.997-3.881-2.194-4.785-1.196-.904-3.256-1.409-6.181-1.516v16.43c-.159.745 1.197 1.117 4.068 1.117.585 0 .877.186.877.558 0 .372-.372.558-1.116.558-.585 0-1.144-.026-1.675-.079h-2.792c-1.17 0-2.579.026-4.227.079h-4.147c-1.489 0-2.234-.186-2.234-.558 0-.425.266-.638.798-.638.16 0 .425.027.798.08h.319c1.807 0 2.711-.372 2.711-1.117V34.414c0-.585-.146-.97-.438-1.156-.293-.186-1.064-.279-2.313-.279-1.25 0-1.875-.213-1.875-.639 0-.372.373-.558 1.117-.558h.558c.851.107 3.377.16 7.577.16 1.755 0 3.191-.027 4.307-.08a59.035 59.035 0 0 1 2.632-.08c3.563 0 6.421.731 8.574 2.193 2.153 1.463 3.23 3.39 3.23 5.783 0 2.605-1.143 4.719-3.429 6.341-2.287 1.621-5.504 2.565-9.651 2.831 4.466.479 7.537 1.648 9.212 3.509 1.675 1.861 2.752 5.211 3.23 10.05.319 3.296 1.303 4.945 2.951 4.945.266 0 .399-.08.399-.24 0-.053-.067-.226-.199-.518-.133-.292-.2-.518-.2-.678 0-1.01.532-1.515 1.595-1.515 1.17 0 1.755.558 1.755 1.675Zm-12.602-25.922c0-4.785-2.366-7.178-7.098-7.178-1.223 0-1.981.12-2.273.359-.293.239-.439.811-.439 1.715v13.08c6.54 0 9.81-2.658 9.81-7.976Z" style="fill:#fff;fill-rule:nonzero"/><path d="M64.015 12.481H56.757c-1.011 0-1.515.216-1.515.645 0 .59.584.859 1.754.804.639-.052 1.887.055 3.749.323.903.107 1.356.511 1.356 1.209 0 1.074-.866 3.329-2.598 6.766l-4.709 9.491c-1.704 3.506-3.222 6.455-4.553 8.845l-7.288-13.803c-3.346-6.418-5.019-10.081-5.019-10.991 0-1.177 1.648-1.765 4.945-1.765 1.807 0 2.712-.24 2.712-.721 0-.535-.478-.803-1.435-.803-.479 0-.905.04-1.277.12l-9.251.119c-.852 0-2.234-.026-4.148-.079-3.35-.106-5.583-.16-6.699-.16-.85 0-1.276.213-1.276.638 0 .586.97.878 2.911.878 1.94 0 3.203.266 3.788.797a118.702 118.702 0 0 1 2.872 5.184l7.975 15.792c2.552 5.052 4.094 8.163 4.626 9.332v16.766c0 2.119-.266 3.39-.798 3.813-.531.424-2.26.69-5.184.796-1.223.056-1.834.336-1.834.84 0 .503.371.755 1.116.755.425 0 .798-.027 1.117-.08 2.02-.106 4.598-.159 7.736-.159l11.166.239h.957c.745 0 1.117-.2 1.117-.604 0-.401-.718-.651-2.153-.752-2.712-.16-4.295-.4-4.746-.72-.452-.32-.678-1.36-.678-3.119V47.758c0-2.398.08-3.958.239-4.677.16-.721.771-2.067 1.835-4.04 1.541-2.873 3.19-6.194 4.945-9.971 3.934-8.544 6.221-13.111 6.859-13.701.69-.968 2.498-1.477 5.423-1.532.904 0 1.356-.201 1.356-.603 0-.661-2.712-.913-8.135-.753ZM141.775 31.782h-9.013c-.637 0-.957.186-.957.556 0 .476.609.714 1.827.714s1.962.08 2.234.239c.27.159.406.582.406 1.27v19.214c0 3.758-.373 6.485-1.117 8.177-1.489 3.389-4.28 5.082-8.374 5.082-2.925 0-5.132-.875-6.62-2.626-1.329-1.537-1.994-4.906-1.994-10.105V35.206c0-1.007.052-1.603.16-1.789.105-.186.451-.279 1.036-.279 1.967.054 2.951-.186 2.951-.718 0-.425-.478-.638-1.435-.638h-12.602c-.745 0-1.116.186-1.116.557 0 .425.557.637 1.675.637 1.381 0 2.166.133 2.352.399.186.265.279 1.83.279 4.695v16.792c0 5.306 1.197 8.886 3.589 10.744 2.605 2.015 6.088 3.024 10.448 3.024 5.264 0 8.933-1.668 11.007-5.003.904-1.481 1.462-2.963 1.675-4.446.212-1.482.319-4.79.319-9.925v-14.69c0-1.058.425-1.588 1.276-1.588h1.994c.85 0 1.276-.185 1.276-.558 0-.425-.426-.638-1.276-.638ZM177.506 64.403c-1.064 0-1.595.492-1.595 1.475 0 .155.066.376.199.66.132.284.2.452.2.504 0 .155-.134.232-.399.232-1.649 0-2.633-1.64-2.951-4.922-.478-4.817-1.556-8.151-3.23-10.005-1.675-1.851-4.745-3.017-9.212-3.494 4.147-.264 7.364-1.203 9.65-2.818 2.286-1.614 3.43-3.718 3.43-6.313 0-2.381-1.077-4.3-3.231-5.756-2.153-1.456-5.011-2.184-8.573-2.184H146.72c-.745 0-1.117.187-1.117.558 0 .427.625.639 1.875.639 1.248 0 2.019.093 2.312.279.292.187.439.572.439 1.157v31.504c0 .745-.905 1.116-2.711 1.116h-1.117c-.533 0-.798.199-.798.596 0 .347.744.521 2.233.521h12.841c.744 0 1.117-.186 1.117-.559 0-.371-.288-.558-.864-.558-2.827 0-4.161-.371-4.001-1.116v-16.43c2.913.105 4.966.609 6.158 1.509 1.191.899 1.921 2.488 2.187 4.765.37 3.548.687 5.799.953 6.752.263.953.795 1.907 1.59 2.859 1.8 2.171 4.132 3.257 6.994 3.257 2.966 0 4.45-.851 4.45-2.553 0-1.116-.586-1.675-1.755-1.675Zm-20.577-16.19V35.201c0-.899.144-1.467.434-1.705.289-.238 1.041-.358 2.255-.358 4.693 0 7.041 2.38 7.041 7.141 0 5.289-3.244 7.934-9.73 7.934Z" style="fill:none;stroke:#fff;stroke-width:.4px"/><path d="M29.115 72.691h154.823V73.8H29.115z" style="fill:#fff;stroke:#fff;stroke-width:.4px"/><path d="M215.984 73.704c0 4.572-1.741 8.467-5.224 11.684-3.483 3.217-7.67 4.825-12.562 4.825-2.871 0-6.3-.877-10.288-2.632-1.064-.478-1.861-.718-2.393-.718-.638 0-1.037.771-1.196 2.313-.054.798-.399 1.197-1.037 1.197-.532 0-.798-.319-.798-.957 0-.426.027-.745.08-.957.425-3.244.638-6.248.638-9.013 0-.532-.053-2.02-.16-4.466a8.144 8.144 0 0 1-.079-1.276c0-.798.319-1.197.957-1.197.532 0 .904.638 1.116 1.914 1.383 9.465 5.876 14.197 13.479 14.197 3.244 0 5.756-.917 7.537-2.751 1.782-1.835 2.672-4.427 2.672-7.777 0-2.977-.864-5.516-2.592-7.617-1.728-2.1-4.692-4.187-8.893-6.261-5.051-2.499-8.56-4.918-10.528-7.257-1.967-2.34-2.951-5.238-2.951-8.694 0-4.413 1.423-8.055 4.267-10.927 2.845-2.871 6.447-4.307 10.807-4.307 1.808 0 4.307.612 7.498 1.835 1.116.425 1.94.638 2.472.638.585 0 .97-.106 1.157-.319.186-.213.358-.771.518-1.675.106-.532.399-.798.877-.798.532 0 .798.319.798.957 0 .426-.027.745-.08.958-.159 1.276-.239 2.818-.239 4.625 0 2.553.133 4.573.399 6.062l.079 1.276c.054.585-.186.877-.717.877-.585 0-.984-.611-1.197-1.834-.585-3.137-1.967-5.756-4.147-7.856-2.18-2.1-4.626-3.15-7.338-3.15-2.658 0-4.772.85-6.341 2.552-1.568 1.701-2.352 4.014-2.352 6.939 0 3.403 1.143 6.141 3.429 8.215 1.276 1.169 4.041 2.818 8.295 4.945 4.998 2.499 8.587 5.038 10.767 7.616 2.18 2.579 3.27 5.517 3.27 8.814ZM254.324 77.372c0 .16-.027.612-.08 1.356-.213 2.872-.319 4.892-.319 6.062 0 .797.08 1.967.239 3.509v.558c0 .532-.213.798-.638.798-.425 0-.851-.452-1.276-1.356l-.718-1.515-.239-.479c-2.393 2.393-5.689 3.589-9.89 3.589-5.37 0-9.837-1.794-13.399-5.383-3.563-3.589-5.344-8.096-5.344-13.519 0-5.424 1.648-9.877 4.945-13.36 3.297-3.482 7.497-5.224 12.602-5.224 3.988 0 7.337 1.037 10.049 3.111.213.213.425.319.638.319.266 0 .505-.346.718-1.037.372-1.17.824-1.755 1.356-1.755.372 0 .558.213.558.638 0 .054-.053.293-.159.718-.319 1.808-.506 4.493-.559 8.056-.053 2.233-.345 3.35-.877 3.35-.425 0-.718-.399-.877-1.197-.532-2.871-1.17-4.998-1.915-6.38-1.701-3.031-4.493-4.547-8.374-4.547-3.244 0-5.822 1.569-7.736 4.706-1.915 3.137-2.872 7.391-2.872 12.761 0 5.371 1.064 9.624 3.191 12.761 2.126 3.138 4.998 4.706 8.613 4.706 2.765 0 5.065-.944 6.899-2.831 1.835-1.888 3.044-4.507 3.629-7.856.266-1.383.612-2.074 1.037-2.074.532 0 .798.505.798 1.515ZM339.207 87.342c0 1.702-1.489 2.552-4.466 2.552-2.871 0-5.211-1.09-7.019-3.27-.797-.957-1.329-1.914-1.595-2.871-.266-.957-.585-3.217-.957-6.779-.266-2.287-.997-3.882-2.193-4.786-1.197-.904-3.257-1.409-6.182-1.515v16.43c-.159.744 1.197 1.116 4.068 1.116.585 0 .877.186.877.559 0 .372-.372.558-1.116.558a16.9 16.9 0 0 1-1.675-.08h-2.792c-1.169 0-2.578.027-4.227.08h-4.147c-1.489 0-2.233-.186-2.233-.558 0-.426.266-.638.797-.638.16 0 .426.026.798.079h.319c1.808 0 2.712-.372 2.712-1.116V55.599c0-.585-.147-.971-.439-1.157-.293-.186-1.063-.279-2.313-.279-1.25 0-1.874-.213-1.874-.638 0-.372.372-.558 1.116-.558h.559c.85.106 3.376.159 7.577.159 1.754 0 3.19-.026 4.306-.08a58.755 58.755 0 0 1 2.632-.079c3.563 0 6.421.731 8.574 2.193 2.154 1.462 3.23 3.39 3.23 5.782 0 2.606-1.143 4.719-3.429 6.341-2.287 1.622-5.503 2.566-9.651 2.831 4.467.479 7.537 1.649 9.212 3.51 1.675 1.861 2.752 5.211 3.23 10.049.319 3.297 1.303 4.945 2.951 4.945.266 0 .399-.08.399-.239 0-.053-.066-.226-.199-.519-.133-.292-.2-.518-.2-.677 0-1.011.532-1.516 1.596-1.516 1.169 0 1.754.558 1.754 1.675Zm-12.601-25.921c0-4.785-2.367-7.178-7.099-7.178-1.223 0-1.98.119-2.273.359-.292.239-.439.811-.439 1.714v13.081c6.541 0 9.811-2.659 9.811-7.976Z" style="fill:#fff;fill-rule:nonzero"/><path d="M212.714 64.89c-2.181-2.578-5.77-5.116-10.767-7.616-4.254-2.126-7.018-3.776-8.295-4.946-2.287-2.073-3.429-4.811-3.429-8.214 0-2.924.784-5.237 2.352-6.939 1.569-1.701 3.682-2.553 6.341-2.553 2.712 0 5.157 1.051 7.338 3.151 2.18 2.101 3.562 4.72 4.147 7.856.212 1.224.611 1.834 1.197 1.834.531 0 .77-.291.718-.877l-.081-1.276c-.266-1.488-.398-3.509-.398-6.062 0-1.806.08-3.349.239-4.626.053-.211.08-.531.08-.957 0-.638-.266-.957-.797-.957-.479 0-.772.267-.877.798-.161.905-.333 1.463-.519 1.675-.187.213-.572.318-1.157.318-.531 0-1.356-.211-2.472-.637-3.19-1.223-5.69-1.835-7.497-1.835-4.361 0-7.964 1.436-10.808 4.307-2.844 2.871-4.266 6.514-4.266 10.927 0 3.457.982 6.355 2.95 8.693 1.967 2.341 5.477 4.76 10.528 7.258 4.201 2.074 7.164 4.161 8.893 6.261 1.727 2.102 2.593 4.64 2.593 7.617 0 3.35-.892 5.943-2.672 7.777-1.782 1.834-4.295 2.752-7.537 2.752-7.605 0-12.097-4.78-13.48-14.338-.213-1.289-.585-1.933-1.116-1.933-.638 0-.957.398-.957 1.196 0 .533.026.957.08 1.276.106 2.446.159 3.935.159 4.466 0 2.766-.213 5.77-.637 9.013-.054.213-.081.532-.081.957 0 .638.266.957.798.957.638 0 .983-.381 1.036-1.141.161-1.472.559-2.208 1.197-2.208.531 0 1.329.239 2.393.717 3.988 1.755 7.417 2.632 10.288 2.632 4.892 0 9.079-1.607 12.562-4.825 3.482-3.217 5.225-7.111 5.225-11.685 0-3.295-1.091-6.233-3.271-8.813ZM253.628 75.857c-.426 0-.771.684-1.037 2.048-.586 3.308-1.794 5.894-3.629 7.759-1.834 1.864-4.135 2.795-6.898 2.795-3.618 0-6.489-1.558-8.615-4.673-2.127-3.116-3.19-7.34-3.19-12.674s.957-9.559 2.871-12.674c1.915-3.116 4.493-4.674 7.737-4.674 3.88 0 6.672 1.506 8.374 4.517.744 1.373 1.382 3.486 1.914 6.338.16.793.452 1.189.878 1.189.531 0 .824-1.117.877-3.35.052-3.562.239-6.247.559-8.055.105-.426.159-.665.159-.718 0-.426-.187-.639-.559-.639-.532 0-.984.586-1.355 1.755-.213.692-.452 1.037-.718 1.037-.213 0-.427-.106-.639-.319-2.71-2.073-6.061-3.11-10.048-3.11-5.105 0-9.306 1.738-12.602 5.213-3.298 3.475-4.945 7.92-4.945 13.33 0 5.413 1.781 9.909 5.344 13.49 3.561 3.582 8.028 5.373 13.399 5.373 4.199 0 7.497-1.169 9.89-3.51l.239.479.718 1.515c.424.905.85 1.356 1.276 1.356.425 0 .638-.267.638-.797v-.559c-.159-1.542-.24-2.712-.24-3.509 0-1.169.107-3.19.32-6.062.053-.743.08-1.196.08-1.355 0-1.01-.267-1.516-.798-1.516ZM337.45 85.587c-1.064 0-1.595.492-1.595 1.475 0 .155.066.376.199.66.132.284.2.452.2.504 0 .155-.134.232-.399.232-1.649 0-2.633-1.64-2.951-4.922-.478-4.817-1.556-8.151-3.23-10.005-1.675-1.851-4.745-3.017-9.212-3.494 4.147-.264 7.364-1.203 9.65-2.818 2.286-1.614 3.43-3.718 3.43-6.313 0-2.381-1.077-4.3-3.231-5.756-2.153-1.456-5.011-2.183-8.573-2.183h-15.074c-.745 0-1.117.186-1.117.557 0 .427.625.639 1.875.639 1.248 0 2.019.093 2.312.278.292.188.439.573.439 1.158v31.504c0 .745-.905 1.116-2.711 1.116h-1.117c-.533 0-.798.199-.798.596 0 .347.744.521 2.233.521h12.841c.744 0 1.117-.186 1.117-.559 0-.371-.288-.558-.864-.558-2.827 0-4.161-.371-4.001-1.116v-16.43c2.913.105 4.966.609 6.158 1.509 1.191.899 1.921 2.488 2.187 4.765.37 3.548.687 5.799.953 6.752.263.953.795 1.907 1.59 2.859 1.8 2.171 4.132 3.257 6.994 3.257 2.966 0 4.45-.851 4.45-2.553 0-1.116-.586-1.675-1.755-1.675Zm-20.577-16.19V56.385c0-.899.144-1.467.434-1.705.289-.239 1.041-.358 2.255-.358 4.693 0 7.041 2.38 7.041 7.141 0 5.289-3.244 7.934-9.73 7.934Z" style="fill:none;stroke:#fff;stroke-width:.4px"/><path d="M371.506 80.642c0 .054-.027.386-.08.997-.053.612-.08 1.157-.08 1.635l-.08 4.547c0 .531.027 1.116.08 1.754l-13.239-.239-15.154.08c-1.117 0-1.675-.186-1.675-.559 0-.425.319-.638.957-.638 1.701 0 2.698-.119 2.991-.359.292-.239.438-1.103.438-2.592V57.832c0-2.18-.186-3.337-.558-3.47-.372-.133-1.303-.199-2.791-.199-.638 0-.957-.186-.957-.558 0-.426.345-.638 1.036-.638h3.51l.877.079h1.994c.266 0 1.595-.026 3.988-.079h13.479c1.382 0 2.525-.053 3.429-.16v.558l.08 1.197c.106.797.319 3.19.638 7.178.053.266.08.585.08.957 0 .691-.186 1.037-.558 1.037-.479 0-.825-.532-1.037-1.595-.745-4.041-2.154-6.407-4.227-7.099-1.17-.372-3.935-.558-8.295-.558h-4.068v14.915h1.914c3.403 0 5.504-.279 6.301-.838.798-.558 1.33-2.087 1.595-4.586.16-1.489.479-2.233.958-2.233.531 0 .797.532.797 1.595 0 .638-.04 1.622-.12 2.951-.079 1.329-.119 2.34-.119 3.031 0 3.456.08 5.822.239 7.098.053.426.08.771.08 1.037 0 .851-.266 1.276-.798 1.276-.478 0-.797-.664-.957-1.994-.319-2.871-.851-4.586-1.595-5.144-.744-.558-2.845-.837-6.301-.837h-1.994V87.98c7.816-.053 12.416-.266 13.798-.638 2.127-.585 3.377-3.137 3.749-7.657.053-.797.345-1.196.877-1.196s.798.718.798 2.153Z" style="fill:#fff;fill-rule:nonzero"/><path d="M370.708 78.489c-.532 0-.825.399-.877 1.196-.372 4.521-1.615 7.073-3.731 7.658-1.377.372-5.955.585-13.736.637V70.753h1.966c3.409 0 5.481.279 6.215.838.734.557 1.259 2.272 1.573 5.144.157 1.329.473 1.993.944 1.993.524 0 .787-.425.787-1.275 0-.266-.02-.611-.06-1.037-.119-1.277-.18-3.642-.18-7.099 0-.69.04-1.701.12-3.03.081-1.329.12-2.314.12-2.951 0-1.064-.267-1.596-.797-1.596-.479 0-.798.745-.957 2.233-.265 2.5-.792 4.029-1.583 4.586-.791.559-2.874.838-6.248.838h-1.9V54.482h4.05c4.341 0 7.094.188 8.258.559 2.064.691 3.468 3.058 4.209 7.098.211 1.065.555 1.595 1.032 1.595.37 0 .556-.34.556-1.021 0-.367-.028-.681-.08-.944-.319-3.929-.532-6.287-.638-7.074l-.08-1.179v-.548H342.395c-.692 0-1.038.212-1.038.637 0 .372.32.559.957.559 1.489 0 2.419.066 2.792.199.372.133.558 1.29.558 3.469v27.436c0 1.49-.146 2.354-.438 2.593-.293.239-1.29.358-2.992.358-.637 0-.957.243-.957.723 0 .422.562.634 1.684.634l15.235-.239 13.31.239a6.078 6.078 0 0 1-.239-1.596v-4.623c0-.486.04-1.041.119-1.662.08-.622.12-.96.12-1.015 0-1.461-.267-2.191-.798-2.191Z" style="fill:none;stroke:#fff;stroke-width:.4px"/><path d="M108.101 58.719c0 11.281-10.312 20.426-23.031 20.426S62.04 70 62.04 58.719c0-11.284 10.311-20.429 23.03-20.429 12.719 0 23.031 9.145 23.031 20.429" style="fill:#00a99d;fill-rule:nonzero"/><path d="M108.101 58.718c0-11.275-10.32-20.428-23.031-20.428-12.711 0-23.03 9.153-23.03 20.428 0 11.274 10.319 20.427 23.03 20.427s23.031-9.153 23.031-20.427Z" style="fill:none;stroke:#00a99d;stroke-width:.4px"/><path d="M212.21 46.631h160.014v1.11H212.21z" style="fill:#fff;stroke:#fff;stroke-width:.4px"/><path d="M304.444 61.875c0 11.283-10.311 20.428-23.031 20.428-12.719 0-23.03-9.145-23.03-20.428 0-11.281 10.311-20.426 23.03-20.426 12.72 0 23.031 9.145 23.031 20.426" style="fill:#3b4098;fill-rule:nonzero"/><path d="M304.444 61.876c0-11.274-10.319-20.427-23.03-20.427s-23.031 9.153-23.031 20.427 10.32 20.427 23.031 20.427c12.711 0 23.03-9.153 23.03-20.427Z" style="fill:none;stroke:#3b4098;stroke-width:.4px"/></svg>